<mxfile modified="2022-02-25T13:33:04.619Z" host="app.diagrams.net" agent="5.0 (Macintosh; Intel Mac OS X 10_15_7) AppleWebKit/537.36 (KHTML, like Gecko) Chrome/98.0.4758.87 Safari/537.36" etag="dJ4CZorpxC385uSCJ6d9" version="16.6.4" type="github">
  <diagram id="WI9T0HZ2pTsCkuznbFz-" name="Page-1">
    <mxGraphModel dx="1298" dy="1982" grid="1" gridSize="10" guides="1" tooltips="1" connect="1" arrows="1" fold="1" page="1" pageScale="1" pageWidth="827" pageHeight="1169" math="0" shadow="0">
      <root>
        <mxCell id="0" />
        <mxCell id="1" parent="0" />
        <mxCell id="k5dDuZlKuJjZO-RbewST-6" value="" style="whiteSpace=wrap;html=1;aspect=fixed;shadow=1;fillColor=#f5f5f5;strokeColor=#666666;fontColor=#333333;" vertex="1" parent="1">
          <mxGeometry x="303.5" y="100" width="450" height="450" as="geometry" />
        </mxCell>
        <mxCell id="k5dDuZlKuJjZO-RbewST-3" value="" style="shape=image;verticalLabelPosition=bottom;labelBackgroundColor=#ffffff;verticalAlign=top;aspect=fixed;imageAspect=0;image=data:image/svg+xml,PHN2ZyB4bWxuczpkYz0iaHR0cDovL3B1cmwub3JnL2RjL2VsZW1lbnRzLzEuMS8iIHhtbG5zOmNjPSJodHRwOi8vY3JlYXRpdmVjb21tb25zLm9yZy9ucyMiIHhtbG5zOnJkZj0iaHR0cDovL3d3dy53My5vcmcvMTk5OS8wMi8yMi1yZGYtc3ludGF4LW5zIyIgeG1sbnM6c3ZnPSJodHRwOi8vd3d3LnczLm9yZy8yMDAwL3N2ZyIgeG1sbnM9Imh0dHA6Ly93d3cudzMub3JnLzIwMDAvc3ZnIiB4bWxuczpzb2RpcG9kaT0iaHR0cDovL3NvZGlwb2RpLnNvdXJjZWZvcmdlLm5ldC9EVEQvc29kaXBvZGktMC5kdGQiIHhtbG5zOmlua3NjYXBlPSJodHRwOi8vd3d3Lmlua3NjYXBlLm9yZy9uYW1lc3BhY2VzL2lua3NjYXBlIiB2ZXJzaW9uPSIxLjEiIGlkPSJzdmc1NjAxOCIgaW5rc2NhcGU6dmVyc2lvbj0iMC45Mi4zICgyNDA1NTQ2LCAyMDE4LTAzLTExKSIgc29kaXBvZGk6ZG9jbmFtZT0iYXp1cmVfY29udGFpbmVyLnN2ZyIgeD0iMHB4IiB5PSIwcHgiIHZpZXdCb3g9IjAgMCA2NS41MiA0OC40OSIgeG1sOnNwYWNlPSJwcmVzZXJ2ZSIgd2lkdGg9IjY1LjUxOTk5NyIgaGVpZ2h0PSI0OC40OTAwMDIiPjxtZXRhZGF0YSBpZD0ibWV0YWRhdGE1NTM4Ij48cmRmOlJERj48Y2M6V29yayByZGY6YWJvdXQ9IiI+PGRjOmZvcm1hdD5pbWFnZS9zdmcreG1sPC9kYzpmb3JtYXQ+PGRjOnR5cGUgcmRmOnJlc291cmNlPSJodHRwOi8vcHVybC5vcmcvZGMvZGNtaXR5cGUvU3RpbGxJbWFnZSIvPjxkYzp0aXRsZS8+PC9jYzpXb3JrPjwvcmRmOlJERj48L21ldGFkYXRhPjxkZWZzIGlkPSJkZWZzNTUzNiIvPiYjeGE7PGZpbHRlciBpZD0iZmlsdGVyXzIiPiYjeGE7CTxmZUdhdXNzaWFuQmx1ciBpZD0iZmVHYXVzc2lhbkJsdXI1NTgzOSIgc3RkRGV2aWF0aW9uPSIyIi8+JiN4YTs8L2ZpbHRlcj4mI3hhOzxzb2RpcG9kaTpuYW1lZHZpZXcgYm9yZGVyY29sb3I9IiM2NjY2NjYiIGJvcmRlcm9wYWNpdHk9IjEiIGZpdC1tYXJnaW4tYm90dG9tPSIwIiBmaXQtbWFyZ2luLWxlZnQ9IjAiIGZpdC1tYXJnaW4tcmlnaHQ9IjAiIGZpdC1tYXJnaW4tdG9wPSIwIiBncmlkdG9sZXJhbmNlPSIxMCIgZ3VpZGV0b2xlcmFuY2U9IjEwIiBpZD0ibmFtZWR2aWV3NTYwMjAiIGlua3NjYXBlOmN1cnJlbnQtbGF5ZXI9InN2ZzU2MDE4IiBpbmtzY2FwZTpjeD0iLTMuNDYzNzEzOSIgaW5rc2NhcGU6Y3k9IjIwLjQ1NjkyNyIgaW5rc2NhcGU6cGFnZW9wYWNpdHk9IjAiIGlua3NjYXBlOnBhZ2VzaGFkb3c9IjIiIGlua3NjYXBlOndpbmRvdy1oZWlnaHQ9IjEwMTciIGlua3NjYXBlOndpbmRvdy1tYXhpbWl6ZWQ9IjEiIGlua3NjYXBlOndpbmRvdy13aWR0aD0iMTkyMCIgaW5rc2NhcGU6d2luZG93LXg9Ii04IiBpbmtzY2FwZTp3aW5kb3cteT0iLTgiIGlua3NjYXBlOnpvb209IjguOTExNjU1NyIgb2JqZWN0dG9sZXJhbmNlPSIxMCIgcGFnZWNvbG9yPSIjZmZmZmZmIiBzaG93Z3JpZD0iZmFsc2UiPiYjeGE7CTwvc29kaXBvZGk6bmFtZWR2aWV3PiYjeGE7JiN4YTs8cGF0aCBpZD0icGF0aDU1ODUyIiBpbmtzY2FwZTpjb25uZWN0b3ItY3VydmF0dXJlPSIwIiBzdHlsZT0iZmlsbDojODA0OTk4IiBkPSJNIDMwLjAxLDEyLjMyIDE5LjkyLDE2LjI1IFYgMCBsIDEwLjA5LDMuNTQgeiIvPiYjeGE7JiN4YTs8cGF0aCBpZD0icGF0aDU1ODYwIiBpbmtzY2FwZTpjb25uZWN0b3ItY3VydmF0dXJlPSIwIiBzdHlsZT0iZmlsbDojODA0OTk4IiBkPSJtIDEwLjg4LDIuNzUgdiAxMC42MSBsIDcuNDcsMi44OSBWIDAuMTMgWiBtIDAuNzksOS44MyAtMC40LC0wLjEzIFYgMy42NyBsIDAuNCwtMC4xMyAwLjM5LC0wLjE0IDAuMzksLTAuMTMgdiA5LjU3IGwgLTAuMzksLTAuMTMgeiBtIDEuOTYsMC41MiAtMC41MiwtMC4xMyBWIDMuMTQgbCAwLjUyLC0wLjEzIDAuNTMsLTAuMTMgMC41MiwtMC4xMyB2IDEwLjc0IGwgLTAuNTIsLTAuMTMgeiBtIDIuMzYsMC43OSAtMC42NSwtMC4yNiBWIDIuNDkgbCAwLjY1LC0wLjEzIDAuNjYsLTAuMjcgMC43OCwtMC4yNiB2IDEyLjQ1IGwgLTAuNzgsLTAuMjYgeiIvPiYjeGE7JiN4YTs8cGF0aCBpZD0icGF0aDU1ODY4IiBpbmtzY2FwZTpjb25uZWN0b3ItY3VydmF0dXJlPSIwIiBzdHlsZT0iZmlsbDojODA0OTk4IiBkPSJNIDUzLjQ3LDEyLjMyIDQzLjM4LDE2LjI1IFYgMCBsIDEwLjA5LDMuNTQgeiIvPiYjeGE7JiN4YTs8cGF0aCBpZD0icGF0aDU1ODc2IiBpbmtzY2FwZTpjb25uZWN0b3ItY3VydmF0dXJlPSIwIiBzdHlsZT0iZmlsbDojODA0OTk4IiBkPSJtIDM0LjMzLDIuNzUgdiAxMC42MSBsIDcuNDcsMi44OSBWIDAuMTMgWiBtIDAuNzksOS44MyAtMC40LC0wLjEzIFYgMy42NyBMIDM1LjEyLDMuNTQgMzUuNTEsMy40IDM1LjksMy4yNyB2IDkuNTcgbCAtMC4zOSwtMC4xMyB6IG0gMS45NiwwLjUyIC0wLjUyLC0wLjEzIFYgMy4xNCBsIDAuNTIsLTAuMTMgMC41MywtMC4xMyAwLjUyLC0wLjEzIHYgMTAuNzQgbCAtMC41MiwtMC4xMyB6IG0gMi4zNiwwLjc5IC0wLjY1LC0wLjI2IFYgMi40OSBMIDM5LjQ0LDIuMzYgNDAuMSwyLjA5IDQwLjg4LDEuODMgViAxNC4yOCBMIDQwLjEsMTQuMDIgWiIvPiYjeGE7JiN4YTs8cGF0aCBpZD0icGF0aDU1ODg0IiBpbmtzY2FwZTpjb25uZWN0b3ItY3VydmF0dXJlPSIwIiBzdHlsZT0iZmlsbDojODA0OTk4IiBkPSJNIDMwLjAxLDQ0LjU2IDE5LjkyLDQ4LjQ5IFYgMzIuMjQgbCAxMC4wOSwzLjU0IHoiLz4mI3hhOyYjeGE7PHBhdGggaWQ9InBhdGg1NTg5MiIgaW5rc2NhcGU6Y29ubmVjdG9yLWN1cnZhdHVyZT0iMCIgc3R5bGU9ImZpbGw6IzgwNDk5OCIgZD0iTSAxMC44OCwzNC45OSBWIDQ1LjYgbCA3LjQ3LDIuODkgViAzMi4zNyBaIG0gMC43OSw5LjgzIC0wLjQsLTAuMTMgdiAtOC43OCBsIDAuNCwtMC4xMyAwLjM5LC0wLjE0IDAuMzksLTAuMTMgdiA5LjU3IGwgLTAuMzksLTAuMTMgeiBtIDEuOTYsMC41MiAtMC41MiwtMC4xMyB2IC05LjgzIGwgMC41MiwtMC4xMyAwLjUzLC0wLjEzIDAuNTIsLTAuMTMgViA0NS43MyBMIDE0LjE2LDQ1LjYgWiBtIDIuMzYsMC43OSAtMC42NSwtMC4yNiBWIDM0LjczIGwgMC42NSwtMC4xMyAwLjY2LC0wLjI3IDAuNzgsLTAuMjYgdiAxMi40NSBsIC0wLjc4LC0wLjI2IHoiLz4mI3hhOyYjeGE7PHBhdGggaWQ9InBhdGg1NTkwMCIgaW5rc2NhcGU6Y29ubmVjdG9yLWN1cnZhdHVyZT0iMCIgc3R5bGU9ImZpbGw6IzgwNDk5OCIgZD0iTSA1My40Nyw0NC41NiA0My4zOCw0OC40OSBWIDMyLjI0IGwgMTAuMDksMy41NCB6Ii8+JiN4YTsmI3hhOzxwYXRoIGlkPSJwYXRoNTU5MDgiIGlua3NjYXBlOmNvbm5lY3Rvci1jdXJ2YXR1cmU9IjAiIHN0eWxlPSJmaWxsOiM4MDQ5OTgiIGQ9Ik0gMzQuMzMsMzQuOTkgViA0NS42IGwgNy40NywyLjg5IFYgMzIuMzcgWiBtIDAuNzksOS44MyAtMC40LC0wLjEzIHYgLTguNzggbCAwLjQsLTAuMTMgMC4zOSwtMC4xNCAwLjM5LC0wLjEzIHYgOS41NyBsIC0wLjM5LC0wLjEzIHogbSAxLjk2LDAuNTIgLTAuNTIsLTAuMTMgdiAtOS44MyBsIDAuNTIsLTAuMTMgMC41MywtMC4xMyAwLjUyLC0wLjEzIFYgNDUuNzMgTCAzNy42MSw0NS42IFogbSAyLjM2LDAuNzkgLTAuNjUsLTAuMjYgViAzNC43MyBsIDAuNjUsLTAuMTMgMC42NiwtMC4yNyAwLjc4LC0wLjI2IFYgNDYuNTIgTCA0MC4xLDQ2LjI2IFoiLz4mI3hhOyYjeGE7PHBhdGggaWQ9InBhdGg1NTkxNiIgaW5rc2NhcGU6Y29ubmVjdG9yLWN1cnZhdHVyZT0iMCIgc3R5bGU9ImZpbGw6IzgwNDk5OCIgZD0ibSA0Mi40NiwyOC40NCAtOS45NiwzLjggViAxNi4xMiBsIDkuOTYsMy41NCB6Ii8+JiN4YTsmI3hhOzxwYXRoIGlkPSJwYXRoNTU5MjQiIGlua3NjYXBlOmNvbm5lY3Rvci1jdXJ2YXR1cmU9IjAiIHN0eWxlPSJmaWxsOiM4MDQ5OTgiIGQ9Im0gMjMuMzMsMTguNzQgdiAxMC42MSBsIDcuNDcsMi44OSBWIDE2LjEyIFogbSAwLjc5LDkuODMgLTAuNCwtMC4xMyB2IC04Ljc4IGwgMC40LC0wLjEzIDAuMzksLTAuMTQgMC4zOSwtMC4xMyB2IDkuNTcgTCAyNC41MSwyOC43IFogbSAxLjk2LDAuNjUgLTAuNTIsLTAuMTMgdiAtOS44MyBsIDAuNTIsLTAuMTMgMC41MywtMC4xMyAwLjUyLC0wLjEzIHYgMTAuNzUgbCAtMC41MiwtMC4xNCB6IG0gMi4zNiwwLjc5IC0wLjY1LC0wLjI2IFYgMTguNjEgbCAwLjY1LC0wLjEzIDAuNjYsLTAuMjcgMC43OCwtMC4yNiBWIDMwLjQgTCAyOS4xLDMwLjE0IFoiLz4mI3hhOyYjeGE7PHBhdGggaWQ9InBhdGg1NTkzMiIgaW5rc2NhcGU6Y29ubmVjdG9yLWN1cnZhdHVyZT0iMCIgc3R5bGU9ImZpbGw6IzgwNDk5OCIgZD0ibSAxOS4xMywyOC40NCAtOS45NiwzLjggViAxNi4xMiBsIDkuOTYsMy41NCB6Ii8+JiN4YTsmI3hhOzxwYXRoIGlkPSJwYXRoNTU5NDAiIGlua3NjYXBlOmNvbm5lY3Rvci1jdXJ2YXR1cmU9IjAiIHN0eWxlPSJmaWxsOiM4MDQ5OTgiIGQ9Im0gMCwxOC43NCB2IDEwLjYxIGwgNy40NywyLjg5IFYgMTYuMTIgWiBtIDAuNzksOS44MyAtMC40LC0wLjEzIHYgLTguNzggbCAwLjQsLTAuMTMgMC4zOSwtMC4xNCAwLjM5LC0wLjEzIHYgOS41NyBMIDEuMTgsMjguNyBaIE0gMi43NSwyOS4yMiAyLjIzLDI5LjA5IFYgMTkuMjYgTCAyLjc1LDE5LjEzIDMuMjgsMTkgMy44LDE4Ljg3IFYgMjkuNjIgTCAzLjI4LDI5LjQ4IFogTSA1LjExLDMwLjAxIDQuNDYsMjkuNzUgViAxOC42MSBMIDUuMTEsMTguNDggNS43NywxOC4yMSA2LjU1LDE3Ljk1IFYgMzAuNCBMIDUuNzcsMzAuMTQgWiIvPiYjeGE7JiN4YTs8cGF0aCBpZD0icGF0aDU1OTQ4IiBpbmtzY2FwZTpjb25uZWN0b3ItY3VydmF0dXJlPSIwIiBzdHlsZT0iZmlsbDojODA0OTk4IiBkPSJtIDY1LjUyLDI4LjQ0IC05Ljk2LDMuOCBWIDE2LjEyIGwgOS45NiwzLjU0IHoiLz4mI3hhOyYjeGE7JiN4YTsmI3hhOyYjeGE7JiN4YTsmI3hhOyYjeGE7JiN4YTsmI3hhOyYjeGE7JiN4YTsmI3hhOyYjeGE7JiN4YTsmI3hhOzxwYXRoIGlkPSJwYXRoNTYwMTIiIGlua3NjYXBlOmNvbm5lY3Rvci1jdXJ2YXR1cmU9IjAiIHN0eWxlPSJmaWxsOiM4MDQ5OTgiIGQ9Im0gNDYuMzksMTguNzQgdiAxMC42MSBsIDcuNDcsMi44OSBWIDE2LjEyIFogbSAwLjc5LDkuODMgLTAuNCwtMC4xMyB2IC04Ljc4IGwgMC40LC0wLjEzIDAuMzksLTAuMTQgMC4zOSwtMC4xMyB2IDkuNTcgTCA0Ny41NywyOC43IFogbSAxLjk2LDAuNjUgLTAuNTIsLTAuMTMgdiAtOS44MyBsIDAuNTIsLTAuMTMgMC41MywtMC4xMyAwLjUyLC0wLjEzIHYgMTAuNzUgbCAtMC41MiwtMC4xNCB6IG0gMi4zNiwwLjc5IC0wLjY1LC0wLjI2IFYgMTguNjEgbCAwLjY1LC0wLjEzIDAuNjYsLTAuMjcgMC43OCwtMC4yNiBWIDMwLjQgbCAtMC43OCwtMC4yNiB6Ii8+JiN4YTs8L3N2Zz4=;" vertex="1" parent="1">
          <mxGeometry x="489.99999999999994" y="40" width="66" height="48" as="geometry" />
        </mxCell>
        <mxCell id="k5dDuZlKuJjZO-RbewST-4" value="" style="shape=image;verticalLabelPosition=bottom;labelBackgroundColor=#ffffff;verticalAlign=top;aspect=fixed;imageAspect=0;image=data:image/svg+xml,PHN2ZyB4bWxuczpjYz0iaHR0cDovL2NyZWF0aXZlY29tbW9ucy5vcmcvbnMjIiB4bWxuczpkYz0iaHR0cDovL3B1cmwub3JnL2RjL2VsZW1lbnRzLzEuMS8iIHhtbG5zOmlua3NjYXBlPSJodHRwOi8vd3d3Lmlua3NjYXBlLm9yZy9uYW1lc3BhY2VzL2lua3NjYXBlIiB4bWxuczpyZGY9Imh0dHA6Ly93d3cudzMub3JnLzE5OTkvMDIvMjItcmRmLXN5bnRheC1ucyMiIHhtbG5zOnNvZGlwb2RpPSJodHRwOi8vc29kaXBvZGkuc291cmNlZm9yZ2UubmV0L0RURC9zb2RpcG9kaS0wLmR0ZCIgeG1sbnM6c3ZnPSJodHRwOi8vd3d3LnczLm9yZy8yMDAwL3N2ZyIgeG1sbnM9Imh0dHA6Ly93d3cudzMub3JnLzIwMDAvc3ZnIiB4bWxuczp4bGluaz0iaHR0cDovL3d3dy53My5vcmcvMTk5OS94bGluayIgdmVyc2lvbj0iMS4xIiBpZD0ic3ZnNjQyMyIgaW5rc2NhcGU6dmVyc2lvbj0iMC45Mi4zICgyNDA1NTQ2LCAyMDE4LTAzLTExKSIgc29kaXBvZGk6ZG9jbmFtZT0ia3ViZXJuZXRlcy5zdmciIHg9IjBweCIgeT0iMHB4IiB2aWV3Qm94PSIwIDAgMzQuNyAzMy43MSIgc3R5bGU9ImVuYWJsZS1iYWNrZ3JvdW5kOm5ldyAwIDAgMzQuNyAzMy43MTsiIHhtbDpzcGFjZT0icHJlc2VydmUiPiYjeGE7PHNvZGlwb2RpOm5hbWVkdmlldyBib3JkZXJjb2xvcj0iIzY2NjY2NiIgYm9yZGVyb3BhY2l0eT0iMSIgZml0LW1hcmdpbi1ib3R0b209IjAiIGZpdC1tYXJnaW4tbGVmdD0iMCIgZml0LW1hcmdpbi1yaWdodD0iMCIgZml0LW1hcmdpbi10b3A9IjAiIGdyaWR0b2xlcmFuY2U9IjEwIiBndWlkZXRvbGVyYW5jZT0iMTAiIGlkPSJuYW1lZHZpZXc2NDI1IiBpbmtzY2FwZTpjdXJyZW50LWxheWVyPSJzdmc2NDIzIiBpbmtzY2FwZTpjeD0iMjMuMTM1NjMyIiBpbmtzY2FwZTpjeT0iMjIuNDcxOTk0IiBpbmtzY2FwZTpwYWdlb3BhY2l0eT0iMCIgaW5rc2NhcGU6cGFnZXNoYWRvdz0iMiIgaW5rc2NhcGU6d2luZG93LWhlaWdodD0iMTAxNyIgaW5rc2NhcGU6d2luZG93LW1heGltaXplZD0iMSIgaW5rc2NhcGU6d2luZG93LXdpZHRoPSIxOTIwIiBpbmtzY2FwZTp3aW5kb3cteD0iLTgiIGlua3NjYXBlOndpbmRvdy15PSItOCIgaW5rc2NhcGU6em9vbT0iMTkuMjg4MzkzIiBvYmplY3R0b2xlcmFuY2U9IjEwIiBwYWdlY29sb3I9IiNmZmZmZmYiIHNob3dncmlkPSJmYWxzZSI+JiN4YTsJPC9zb2RpcG9kaTpuYW1lZHZpZXc+JiN4YTs8ZyBpZD0ic2hhcGUzNTA0LTIiIHRyYW5zZm9ybT0idHJhbnNsYXRlKDIuMjkwNDQ1NywtMi4yODk1MTk5KSI+JiN4YTsJPHRpdGxlIGlkPSJ0aXRsZTY0MDAiPlNoZWV0LjM1MDQ8L3RpdGxlPiYjeGE7CSYjeGE7CQk8cGF0aCBpZD0icGF0aDY0MDIiIGlua3NjYXBlOmNvbm5lY3Rvci1jdXJ2YXR1cmU9IjAiIHN0eWxlPSJmaWxsOiNGRkZGRkY7c3Ryb2tlOiNGRkZGRkY7c3Ryb2tlLXdpZHRoOjQuNTgxO3N0cm9rZS1saW5lY2FwOnJvdW5kO3N0cm9rZS1saW5lam9pbjpyb3VuZDtzdHJva2UtbWl0ZXJsaW1pdDozOyIgZD0iICAgTTE1LjA2LDQuNThsMTIuMDgsNS43N2wyLjk4LDEyLjk2bC04LjM1LDEwLjRIOC4zNkwwLDIzLjMybDIuOTgtMTIuOTdMMTUuMDYsNC41OHoiLz4mI3hhOzwvZz4mI3hhOzxnIGlkPSJzaGFwZTM1MDUtNCIgdHJhbnNmb3JtPSJ0cmFuc2xhdGUoMC44OTgyMTU3MSwtMC44ODg1OTk4NSkiPiYjeGE7CTx0aXRsZSBpZD0idGl0bGU2NDA1Ij5TaGVldC4zNTA1PC90aXRsZT4mI3hhOwk8cGF0aCBpZD0icGF0aDY0MDciIGlua3NjYXBlOmNvbm5lY3Rvci1jdXJ2YXR1cmU9IjAiIHN0eWxlPSJmaWxsOiMzMjZDRTU7IiBkPSJNMTYuMzQsMS43OEMxNi4wNSwxLjgsMTUuNzYsMS44NywxNS41LDJMNC4wNiw3LjQ2ICAgYy0wLjYsMC4yOS0xLjAzLDAuODMtMS4xOCwxLjQ3TDAuMDYsMjEuMjFjLTAuMTQsMC41OC0wLjAzLDEuMTcsMC4yOSwxLjY3YzAuMDQsMC4wNiwwLjA4LDAuMTEsMC4xMywwLjE3TDguNCwzMi45ICAgYzAuNDEsMC41MSwxLjA0LDAuODEsMS43LDAuODFoMTIuN2MwLjY3LDAsMS4zLTAuMywxLjcxLTAuODJsNy45Mi05Ljg0YzAuNDEtMC41MiwwLjU3LTEuMiwwLjQyLTEuODRMMzAuMDMsOC45MyAgIGMtMC4xNS0wLjY0LTAuNTktMS4xOC0xLjE5LTEuNDdMMTcuNCwyQzE3LjA3LDEuODQsMTYuNywxLjc2LDE2LjM0LDEuNzh6Ii8+JiN4YTs8L2c+JiN4YTs8ZyBpZD0ic2hhcGUzNTA2LTYiIHRyYW5zZm9ybT0idHJhbnNsYXRlKDAuODk4MjE1NzEsLTAuODg4NTk5ODUpIj4mI3hhOwk8dGl0bGUgaWQ9InRpdGxlNjQxMCI+U2hlZXQuMzUwNjwvdGl0bGU+JiN4YTsJPHBhdGggaWQ9InBhdGg2NDEyIiBpbmtzY2FwZTpjb25uZWN0b3ItY3VydmF0dXJlPSIwIiBzdHlsZT0iZmlsbDpub25lOyIgZD0iTTE2LjM0LDEuNzhDMTYuMDUsMS44LDE1Ljc2LDEuODcsMTUuNSwyTDQuMDYsNy40NiAgIGMtMC42LDAuMjktMS4wMywwLjgzLTEuMTgsMS40N0wwLjA2LDIxLjIxYy0wLjE0LDAuNTgtMC4wMywxLjE3LDAuMjksMS42N2MwLjA0LDAuMDYsMC4wOCwwLjExLDAuMTMsMC4xN0w4LjQsMzIuOSAgIGMwLjQxLDAuNTEsMS4wNCwwLjgxLDEuNywwLjgxaDEyLjdjMC42NywwLDEuMy0wLjMsMS43MS0wLjgybDcuOTItOS44NGMwLjQxLTAuNTIsMC41Ny0xLjIsMC40Mi0xLjg0TDMwLjAzLDguOTMgICBjLTAuMTUtMC42NC0wLjU5LTEuMTgtMS4xOS0xLjQ3TDE3LjQsMkMxNy4wNywxLjg0LDE2LjcsMS43NiwxNi4zNCwxLjc4Ii8+JiN4YTs8L2c+JiN4YTs8ZyBpZD0ic2hhcGUzNTA3LTkiIHRyYW5zZm9ybT0idHJhbnNsYXRlKDUuMjkwMzg1NywtNS4wNzA3OTk5KSI+JiN4YTsJPHRpdGxlIGlkPSJ0aXRsZTY0MTUiPlNoZWV0LjM1MDc8L3RpdGxlPiYjeGE7CSYjeGE7CQk8cGF0aCBpZD0icGF0aDY0MTciIGlua3NjYXBlOmNvbm5lY3Rvci1jdXJ2YXR1cmU9IjAiIHN0eWxlPSJmaWxsOiNGRkZGRkY7c3Ryb2tlOiNGRkZGRkY7c3Ryb2tlLXdpZHRoOjAuMDExMjtzdHJva2UtbGluZWNhcDpyb3VuZDtzdHJva2UtbGluZWpvaW46cm91bmQ7c3Ryb2tlLW1pdGVybGltaXQ6MzsiIGQ9IiAgIE0xMi4wNiwxMC4xNWMtMC4zOCwwLTAuNjgsMC4zNC0wLjY4LDAuNzZ2MC4wMWMwLDAuMDYsMCwwLjEzLDAsMC4xOGMwLjAxLDAuMjQsMC4wNiwwLjQzLDAuMDksMC42NWMwLjA2LDAuNDgsMC4xLDAuODgsMC4wNywxLjI0ICAgYy0wLjAyLDAuMTQtMC4xMywwLjI3LTAuMjIsMC4zNmwtMC4wMSwwLjI5Yy0wLjQxLDAuMDMtMC44MywwLjA5LTEuMjQsMC4xOWMtMS43OCwwLjQtMy4zMSwxLjMyLTQuNDcsMi41NSAgIGMtMC4wOC0wLjA1LTAuMjEtMC4xNC0wLjI1LTAuMTdjLTAuMTIsMC4wMS0wLjI1LDAuMDUtMC40MS0wLjA0Yy0wLjMxLTAuMjEtMC41OC0wLjQ5LTAuOTItMC44NGMtMC4xNi0wLjE2LTAuMjctMC4zMi0wLjQ1LTAuNDggICBjLTAuMDUtMC4wMy0wLjExLTAuMDgtMC4xNS0wLjEyYy0wLjE1LTAuMTEtMC4zMi0wLjE3LTAuNDgtMC4xOGMtMC4yMSwwLTAuNDIsMC4wOC0wLjU1LDAuMjRjLTAuMjMsMC4zLTAuMTYsMC43NSwwLjE3LDEuMDJoMC4wMSAgIGMwLjA0LDAuMDQsMC4xLDAuMDksMC4xNCwwLjEyYzAuMiwwLjE0LDAuMzgsMC4yMSwwLjU3LDAuMzNjMC40MSwwLjI1LDAuNzUsMC40NiwxLjAyLDAuNzFjMC4xMSwwLjEyLDAuMTIsMC4zMSwwLjE0LDAuNGwwLjIyLDAuMiAgIGMtMS4xOCwxLjc2LTEuNzIsMy45NS0xLjQsNi4xN2wtMC4yOSwwLjA5Yy0wLjA3LDAuMDktMC4xOCwwLjI1LTAuMjksMC4yOWMtMC4zNSwwLjExLTAuNzUsMC4xNS0xLjIzLDAuMiAgIGMtMC4yMiwwLjAyLTAuNDIsMC4wMS0wLjY2LDAuMDZjLTAuMDUsMC4wMS0wLjEyLDAuMDMtMC4xOCwwLjA0YzAsMCwwLDAtMC4wMSwwbDAsMGMtMC40MSwwLjEtMC42NywwLjQ3LTAuNTgsMC44NCAgIGMwLjA4LDAuMzYsMC40NywwLjU5LDAuODgsMC41aDAuMDFsMC4wMS0wLjAxYzAuMDYtMC4wMSwwLjEzLTAuMDIsMC4xOC0wLjA0YzAuMjMtMC4wNiwwLjQtMC4xNSwwLjYxLTAuMjMgICBjMC40Ni0wLjE2LDAuODMtMC4zLDEuMi0wLjM1YzAuMTUtMC4wMiwwLjMxLDAuMDksMC4zOSwwLjE0bDAuMy0wLjA2YzAuNjksMi4xNCwyLjEzLDMuODYsMy45NSw0LjkzbC0wLjEzLDAuMyAgIGMwLjA1LDAuMTIsMC4xLDAuMjgsMC4wNiwwLjM5Yy0wLjEzLDAuMzQtMC4zNiwwLjcxLTAuNjEsMS4xMmMtMC4xMywwLjE4LTAuMjYsMC4zMy0wLjM3LDAuNTRjLTAuMDMsMC4wNi0wLjA2LDAuMTMtMC4wOSwwLjE5ICAgYy0wLjE4LDAuMzctMC4wNSwwLjgxLDAuMjksMC45N2MwLjM0LDAuMTcsMC43Ny0wLjAxLDAuOTUtMC4zOWwwLDBsMCwwYzAuMDMtMC4wNSwwLjA2LTAuMTIsMC4wOC0wLjE3ICAgYzAuMS0wLjIzLDAuMTMtMC40MiwwLjItMC42M2MwLjE4LTAuNDYsMC4yOC0wLjkzLDAuNTMtMS4yM2MwLjA3LTAuMDgsMC4xOC0wLjEyLDAuMjktMC4xNWwwLjE2LTAuMjggICBjMS41OSwwLjYxLDMuMzcsMC43OCw1LjE0LDAuMzdjMC40MS0wLjA5LDAuOC0wLjIxLDEuMTgtMC4zNWMwLjA1LDAuMDgsMC4xMiwwLjIzLDAuMTUsMC4yNmMwLjExLDAuMDQsMC4yNCwwLjA2LDAuMzQsMC4yMSAgIGMwLjE5LDAuMzMsMC4zMiwwLjcsMC40OCwxLjE2YzAuMDYsMC4yMSwwLjEsMC40LDAuMiwwLjYyYzAuMDIsMC4wNiwwLjA1LDAuMTMsMC4wOCwwLjE4YzAuMTgsMC4zOCwwLjYsMC41NSwwLjk1LDAuMzkgICBjMC4zNC0wLjE3LDAuNDYtMC42LDAuMjktMC45N2MtMC4wMy0wLjA2LTAuMDctMC4xNC0wLjA5LTAuMTljLTAuMTItMC4yMS0wLjI0LTAuMzYtMC4zNy0wLjU1Yy0wLjI2LTAuNC0wLjQ3LTAuNzQtMC42MS0xLjA4ICAgYy0wLjA1LTAuMTgsMC4wMS0wLjI5LDAuMDYtMC40MWMtMC4wMy0wLjAzLTAuMDktMC4xOS0wLjEyLTAuMjdjMS45LTEuMTIsMy4yOS0yLjkxLDMuOTUtNC45N2MwLjA5LDAuMDEsMC4yNCwwLjA0LDAuMjksMC4wNSAgIGMwLjEtMC4wNywwLjItMC4xNiwwLjM5LTAuMTRjMC4zNiwwLjA1LDAuNzQsMC4xOSwxLjE5LDAuMzVjMC4yMSwwLjA4LDAuMzgsMC4xOCwwLjYxLDAuMjRjMC4wNSwwLjAxLDAuMTIsMC4wMiwwLjE4LDAuMDQgICBjMCwwLDAuMDEsMCwwLjAyLDBsMCwwYzAuNDEsMC4wOSwwLjgtMC4xMywwLjg5LTAuNWMwLjA4LTAuMzYtMC4xOC0wLjczLTAuNTgtMC44M2MtMC4wNi0wLjAyLTAuMTQtMC4wNC0wLjItMC4wNSAgIGMtMC4yNC0wLjA0LTAuNDMtMC4wMy0wLjY2LTAuMDVjLTAuNDgtMC4wNS0wLjg3LTAuMDktMS4yMy0wLjJjLTAuMTQtMC4wNi0wLjI0LTAuMjMtMC4yOS0wLjNsLTAuMjgtMC4wOCAgIGMwLjE1LTEuMDQsMC4xMS0yLjEyLTAuMTQtMy4yYy0wLjI1LTEuMDktMC42OS0yLjA4LTEuMjgtMi45NmMwLjA3LTAuMDcsMC4yLTAuMTksMC4yNC0wLjIyYzAuMDEtMC4xMywwLTAuMjUsMC4xMy0wLjM5ICAgYzAuMjctMC4yNSwwLjYxLTAuNDYsMS4wMi0wLjcyYzAuMTktMC4xMSwwLjM3LTAuMTgsMC41Ny0wLjMzYzAuMDQtMC4wMywwLjEtMC4wOCwwLjE1LTAuMTJjMC4zMy0wLjI2LDAuNC0wLjcxLDAuMTctMS4wMSAgIGMtMC4yNC0wLjI5LTAuNy0wLjMyLTEuMDMtMC4wNmMtMC4wNCwwLjA0LTAuMTEsMC4wOS0wLjE1LDAuMTJjLTAuMTgsMC4xNi0wLjMsMC4zMi0wLjQ1LDAuNDhjLTAuMzQsMC4zNC0wLjYyLDAuNjMtMC45MiwwLjg0ICAgYy0wLjE0LDAuMDctMC4zMywwLjA1LTAuNDIsMC4wNGwtMC4yNiwwLjE5Yy0xLjQ4LTEuNTYtMy41MS0yLjU1LTUuNjktMi43NWMwLTAuMDktMC4wMS0wLjI1LTAuMDEtMC4zICAgYy0wLjA5LTAuMDktMC4yLTAuMTYtMC4yMy0wLjM1Yy0wLjAzLTAuMzYsMC4wMy0wLjc2LDAuMDgtMS4yNGMwLjA0LTAuMjIsMC4wOS0wLjQxLDAuMS0wLjY1YzAtMC4wNiwwLTAuMTMsMC0wLjE5ICAgQzEyLjc1LDEwLjQ5LDEyLjQ0LDEwLjE1LDEyLjA2LDEwLjE1eiBNMTEuMiwxNS40NkwxMSwxOS4wNWgtMC4wMWwwLDBjLTAuMDIsMC4zMy0wLjI4LDAuNTgtMC42MSwwLjU4ICAgYy0wLjEzLDAtMC4yNS0wLjA0LTAuMzUtMC4xMWgtMC4wMWwtMi45NC0yLjA5bDAsMGMwLjktMC44OSwyLjA2LTEuNTUsMy4zOS0xLjg1QzEwLjcyLDE1LjUyLDEwLjk2LDE1LjQ4LDExLjIsMTUuNDZ6ICAgIE0xMi45MiwxNS40NmMxLjU2LDAuMTksMywwLjg5LDQuMSwxLjk3bC0yLjkyLDIuMDhsLTAuMDEtMC4wMWwwLDBjLTAuMjYsMC4xOS0wLjYzLDAuMTQtMC44My0wLjExYy0wLjA5LTAuMS0wLjEzLTAuMjItMC4xMy0wLjM1ICAgTDEyLjkyLDE1LjQ2eiBNNi4wMSwxOC43N2wyLjY5LDIuNDFMOC42OSwyMS4ybDAsMGMwLjI1LDAuMjEsMC4yOCwwLjU3LDAuMDgsMC44MmMtMC4wOCwwLjExLTAuMTksMC4xOC0wLjMxLDAuMjFsLTAuMDEsMC4wMSAgIGwtMy40NCwxbDAsMEM0LjgzLDIxLjYzLDUuMjEsMjAuMDgsNi4wMSwxOC43N3ogTTE4LjEsMTguNzhjMC40LDAuNjQsMC43LDEuMzcsMC44OCwyLjE1YzAuMTgsMC43NywwLjIyLDEuNTUsMC4xNSwyLjNsLTMuNDctMSAgIHYtMC4wMmwwLDBjLTAuMzEtMC4wOC0wLjUtMC40LTAuNDMtMC43MWMwLjAzLTAuMTMsMC4xLTAuMjQsMC4xOS0wLjMydi0wLjAxTDE4LjEsMTguNzh6IE0xMS41MSwyMS4zNmgxLjFsMC42OSwwLjg2bC0wLjI1LDEuMDcgICBsLTAuOTksMC40OGwtMC45OS0wLjQ4bC0wLjI1LTEuMDdMMTEuNTEsMjEuMzZ6IE0xNS4wNCwyNC4yOWMwLjA1LDAsMC4xLDAuMDEsMC4xNCwwLjAxaDAuMDFsMy41NiwwLjZsMCwwICAgYy0wLjUyLDEuNDYtMS41MiwyLjc0LTIuODUsMy41OGwtMS4zOS0zLjM0aDAuMDFsMCwwYy0wLjEzLTAuMywwLTAuNjQsMC4yOS0wLjc5QzE0Ljg5LDI0LjMyLDE0Ljk2LDI0LjMsMTUuMDQsMjQuMjl6IE05LjA1LDI0LjMxICAgYzAuMjcsMCwwLjUyLDAuMTksMC41OCwwLjQ3YzAuMDMsMC4xMywwLjAyLDAuMjYtMC4wMywwLjM3bDAuMDEsMC4wMWwtMS4zNywzLjMxbDAsMGMtMS4yOC0wLjgyLTIuMy0yLjA1LTIuODUtMy41NmwzLjU0LTAuNnYwLjAxICAgbDAsMEM4Ljk3LDI0LjMxLDkuMDEsMjQuMzEsOS4wNSwyNC4zMXogTTEyLjA0LDI1Ljc2YzAuMDktMC4wMSwwLjE5LDAuMDIsMC4yOCwwLjA2YzAuMTIsMC4wNiwwLjIxLDAuMTUsMC4yNywwLjI2aDAuMDFsMS43NSwzLjE1ICAgbDAsMGMtMC4yMywwLjA3LTAuNDYsMC4xNC0wLjcsMC4xOWMtMS4zMywwLjMtMi42NiwwLjIxLTMuODYtMC4ybDEuNzQtMy4xNGwwLDBsMCwwQzExLjYzLDI1Ljg4LDExLjgzLDI1Ljc3LDEyLjA0LDI1Ljc2eiIvPiYjeGE7PC9nPiYjeGE7PC9zdmc+;" vertex="1" parent="1">
          <mxGeometry x="521" y="60" width="35" height="34" as="geometry" />
        </mxCell>
        <mxCell id="k5dDuZlKuJjZO-RbewST-7" style="edgeStyle=orthogonalEdgeStyle;rounded=0;orthogonalLoop=1;jettySize=auto;html=1;exitX=0;exitY=0.75;exitDx=0;exitDy=0;" edge="1" parent="1" source="k5dDuZlKuJjZO-RbewST-5" target="k5dDuZlKuJjZO-RbewST-6">
          <mxGeometry relative="1" as="geometry" />
        </mxCell>
        <mxCell id="k5dDuZlKuJjZO-RbewST-5" value="" style="shape=image;verticalLabelPosition=bottom;labelBackgroundColor=#ffffff;verticalAlign=top;aspect=fixed;imageAspect=0;image=data:image/svg+xml,PHN2ZyB4bWxuczpjYz0iaHR0cDovL2NyZWF0aXZlY29tbW9ucy5vcmcvbnMjIiB4bWxuczpkYz0iaHR0cDovL3B1cmwub3JnL2RjL2VsZW1lbnRzLzEuMS8iIHhtbG5zOmlua3NjYXBlPSJodHRwOi8vd3d3Lmlua3NjYXBlLm9yZy9uYW1lc3BhY2VzL2lua3NjYXBlIiB4bWxuczpyZGY9Imh0dHA6Ly93d3cudzMub3JnLzE5OTkvMDIvMjItcmRmLXN5bnRheC1ucyMiIHhtbG5zOnNvZGlwb2RpPSJodHRwOi8vc29kaXBvZGkuc291cmNlZm9yZ2UubmV0L0RURC9zb2RpcG9kaS0wLmR0ZCIgeG1sbnM6c3ZnPSJodHRwOi8vd3d3LnczLm9yZy8yMDAwL3N2ZyIgeG1sbnM9Imh0dHA6Ly93d3cudzMub3JnLzIwMDAvc3ZnIiB4bWxuczp4bGluaz0iaHR0cDovL3d3dy53My5vcmcvMTk5OS94bGluayIgdmVyc2lvbj0iMS4xIiBpZD0ic3ZnMjY0NTU4IiBpbmtzY2FwZTp2ZXJzaW9uPSIwLjkyLjMgKDI0MDU1NDYsIDIwMTgtMDMtMTEpIiBzb2RpcG9kaTpkb2NuYW1lPSJ0ZnMuc3ZnIiB4PSIwcHgiIHk9IjBweCIgdmlld0JveD0iMCAwIDQ4LjQxIDY5Ljc2IiBzdHlsZT0iZW5hYmxlLWJhY2tncm91bmQ6bmV3IDAgMCA0OC40MSA2OS43NjsiIHhtbDpzcGFjZT0icHJlc2VydmUiPiYjeGE7PHNvZGlwb2RpOm5hbWVkdmlldyBib3JkZXJjb2xvcj0iIzY2NjY2NiIgYm9yZGVyb3BhY2l0eT0iMSIgZml0LW1hcmdpbi1ib3R0b209IjAiIGZpdC1tYXJnaW4tbGVmdD0iMCIgZml0LW1hcmdpbi1yaWdodD0iMCIgZml0LW1hcmdpbi10b3A9IjAiIGdyaWR0b2xlcmFuY2U9IjEwIiBndWlkZXRvbGVyYW5jZT0iMTAiIGlkPSJuYW1lZHZpZXcyNjQ1NjAiIGlua3NjYXBlOmN1cnJlbnQtbGF5ZXI9InN2ZzI2NDU1OCIgaW5rc2NhcGU6Y3g9IjMyLjE5MDg5NyIgaW5rc2NhcGU6Y3k9IjQ2LjUwODM0NiIgaW5rc2NhcGU6cGFnZW9wYWNpdHk9IjAiIGlua3NjYXBlOnBhZ2VzaGFkb3c9IjIiIGlua3NjYXBlOndpbmRvdy1oZWlnaHQ9IjEwMTciIGlua3NjYXBlOndpbmRvdy1tYXhpbWl6ZWQ9IjEiIGlua3NjYXBlOndpbmRvdy13aWR0aD0iMTkyMCIgaW5rc2NhcGU6d2luZG93LXg9Ii04IiBpbmtzY2FwZTp3aW5kb3cteT0iLTgiIGlua3NjYXBlOnpvb209IjkuMTI1MzY4OSIgb2JqZWN0dG9sZXJhbmNlPSIxMCIgcGFnZWNvbG9yPSIjZmZmZmZmIiBzaG93Z3JpZD0iZmFsc2UiPiYjeGE7CTwvc29kaXBvZGk6bmFtZWR2aWV3PiYjeGE7PGcgaWQ9ImcyNjQ1NTYiIHRyYW5zZm9ybT0idHJhbnNsYXRlKC0wLjc1LC0wLjc1MDAzODc4KSI+JiN4YTsJPHRpdGxlIGlkPSJ0aXRsZTI2NDQ2NiI+UGFnZS0xPC90aXRsZT4mI3hhOwk8ZyBpZD0iZ3JvdXAxMTE5Ni0xIiB0cmFuc2Zvcm09InRyYW5zbGF0ZSgxLjUsLTEuNSkiPiYjeGE7CQk8dGl0bGUgaWQ9InRpdGxlMjY0NDY4Ij5URlM8L3RpdGxlPiYjeGE7CQk8ZyBpZD0iZ3JvdXAxMTE5Ny0yIj4mI3hhOwkJCTx0aXRsZSBpZD0idGl0bGUyNjQ0NzAiPkdlbmVyaWMgU2VydmljZTwvdGl0bGU+JiN4YTsJCQk8ZyBpZD0iZ3JvdXAxMTE5OC0zIiB0cmFuc2Zvcm09InRyYW5zbGF0ZSgwLC0wLjAwNzM5ODc2KSI+JiN4YTsJCQkJPHRpdGxlIGlkPSJ0aXRsZTI2NDQ3MiI+ZzE1NDMzLjExNzIxPC90aXRsZT4mI3hhOwkJCQk8ZyBpZD0ic2hhcGUxMTE5OS00Ij4mI3hhOwkJCQkJPHRpdGxlIGlkPSJ0aXRsZTI2NDQ3NCI+cmVjdDE1NDA1PC90aXRsZT4mI3hhOwkJCQkJJiN4YTsJCQkJCQk8cmVjdCBpZD0icmVjdDI2NDQ3NiIgeT0iMy4wMSIgc3R5bGU9ImZpbGw6I0ZGRkZGRjtzdHJva2U6IzU1NkE4QTtzdHJva2Utd2lkdGg6MS41O3N0cm9rZS1taXRlcmxpbWl0OjM7IiB3aWR0aD0iMzkuNzUiIGhlaWdodD0iNjguMjUiLz4mI3hhOwkJCQk8L2c+JiN4YTsJCQkJPGcgaWQ9Imdyb3VwMTEyMDAtNiIgdHJhbnNmb3JtPSJ0cmFuc2xhdGUoMS41LC0wLjc1KSI+JiN4YTsJCQkJCTx0aXRsZSBpZD0idGl0bGUyNjQ0NzkiPmcxNTQyNTwvdGl0bGU+JiN4YTsJCQkJCTxnIGlkPSJzaGFwZTExMjAxLTciIHRyYW5zZm9ybT0idHJhbnNsYXRlKDE4KSI+JiN4YTsJCQkJCQk8dGl0bGUgaWQ9InRpdGxlMjY0NDgxIj5yZWN0MTU0MDc8L3RpdGxlPiYjeGE7CQkJCQkJPHJlY3QgaWQ9InJlY3QyNjQ0ODMiIHk9IjQuNTEiIHN0eWxlPSJmaWxsOiNFNUU1RTU7IiB3aWR0aD0iMTkuNSIgaGVpZ2h0PSI2Ni43NSIvPiYjeGE7CQkJCQk8L2c+JiN4YTsJCQkJCTxnIGlkPSJzaGFwZTExMjAyLTkiIHRyYW5zZm9ybT0idHJhbnNsYXRlKDAsLTQ4KSI+JiN4YTsJCQkJCQk8dGl0bGUgaWQ9InRpdGxlMjY0NDg2Ij5yZWN0MTU0MDk8L3RpdGxlPiYjeGE7CQkJCQkJPHJlY3QgaWQ9InJlY3QyNjQ0ODgiIHk9IjY5LjAxIiBzdHlsZT0iZmlsbDojMkJDN0Y0OyIgd2lkdGg9IjE4IiBoZWlnaHQ9IjIuMjUiLz4mI3hhOwkJCQkJPC9nPiYjeGE7CQkJCQk8ZyBpZD0ic2hhcGUxMTIwMy0xMSIgdHJhbnNmb3JtPSJ0cmFuc2xhdGUoMCwtNTguNSkiPiYjeGE7CQkJCQkJPHRpdGxlIGlkPSJ0aXRsZTI2NDQ5MSI+cG9seWdvbjE1NDExPC90aXRsZT4mI3hhOwkJCQkJCTxyZWN0IGlkPSJyZWN0MjY0NDkzIiB5PSI2OS4wMSIgc3R5bGU9ImZpbGw6bm9uZTsiIHdpZHRoPSIyNyIgaGVpZ2h0PSIyLjI1Ii8+JiN4YTsJCQkJCTwvZz4mI3hhOwkJCQkJPGcgaWQ9InNoYXBlMTEyMDQtMTMiIHRyYW5zZm9ybT0idHJhbnNsYXRlKDAsLTU4LjUpIj4mI3hhOwkJCQkJCTx0aXRsZSBpZD0idGl0bGUyNjQ0OTYiPnBvbHlsaW5lMTU0MTM8L3RpdGxlPiYjeGE7CQkJCQkJPHJlY3QgaWQ9InJlY3QyNjQ0OTgiIHk9IjY5LjAxIiBzdHlsZT0iZmlsbDpub25lOyIgd2lkdGg9IjI3IiBoZWlnaHQ9IjIuMjUiLz4mI3hhOwkJCQkJPC9nPiYjeGE7CQkJCQk8ZyBpZD0ic2hhcGUxMTIwNS0xNSIgdHJhbnNmb3JtPSJ0cmFuc2xhdGUoMCwtNTMuMjUpIj4mI3hhOwkJCQkJCTx0aXRsZSBpZD0idGl0bGUyNjQ1MDEiPnJlY3QxNTQxNTwvdGl0bGU+JiN4YTsJCQkJCQk8cmVjdCBpZD0icmVjdDI2NDUwMyIgeT0iNjkuMDEiIHN0eWxlPSJmaWxsOiMyQkM3RjQ7IiB3aWR0aD0iMTgiIGhlaWdodD0iMi4yNSIvPiYjeGE7CQkJCQk8L2c+JiN4YTsJCQkJCTxnIGlkPSJzaGFwZTExMjA2LTE3IiB0cmFuc2Zvcm09InRyYW5zbGF0ZSgwLC01OC41KSI+JiN4YTsJCQkJCQk8dGl0bGUgaWQ9InRpdGxlMjY0NTA2Ij5yZWN0MTU0MTc8L3RpdGxlPiYjeGE7CQkJCQkJPHJlY3QgaWQ9InJlY3QyNjQ1MDgiIHk9IjY5LjAxIiBzdHlsZT0iZmlsbDojMkJDN0Y0OyIgd2lkdGg9IjE4IiBoZWlnaHQ9IjIuMjUiLz4mI3hhOwkJCQkJPC9nPiYjeGE7CQkJCQk8ZyBpZD0ic2hhcGUxMTIwNy0xOSIgdHJhbnNmb3JtPSJ0cmFuc2xhdGUoMTgsLTQ4KSI+JiN4YTsJCQkJCQk8dGl0bGUgaWQ9InRpdGxlMjY0NTExIj5yZWN0MTU0MTk8L3RpdGxlPiYjeGE7CQkJCQkJPHJlY3QgaWQ9InJlY3QyNjQ1MTMiIHk9IjY5LjAxIiBzdHlsZT0iZmlsbDojNTU2QThBOyIgd2lkdGg9IjE5LjUiIGhlaWdodD0iMi4yNSIvPiYjeGE7CQkJCQk8L2c+JiN4YTsJCQkJCTxnIGlkPSJzaGFwZTExMjA4LTIxIiB0cmFuc2Zvcm09InRyYW5zbGF0ZSgxOCwtNTMuMjUpIj4mI3hhOwkJCQkJCTx0aXRsZSBpZD0idGl0bGUyNjQ1MTYiPnJlY3QxNTQyMTwvdGl0bGU+JiN4YTsJCQkJCQk8cmVjdCBpZD0icmVjdDI2NDUxOCIgeT0iNjkuMDEiIHN0eWxlPSJmaWxsOiM1NTZBOEE7IiB3aWR0aD0iMTkuNSIgaGVpZ2h0PSIyLjI1Ii8+JiN4YTsJCQkJCTwvZz4mI3hhOwkJCQkJPGcgaWQ9InNoYXBlMTEyMDktMjMiIHRyYW5zZm9ybT0idHJhbnNsYXRlKDE4LC01OC41KSI+JiN4YTsJCQkJCQk8dGl0bGUgaWQ9InRpdGxlMjY0NTIxIj5yZWN0MTU0MjM8L3RpdGxlPiYjeGE7CQkJCQkJPHJlY3QgaWQ9InJlY3QyNjQ1MjMiIHk9IjY5LjAxIiBzdHlsZT0iZmlsbDojNTU2QThBOyIgd2lkdGg9IjE5LjUiIGhlaWdodD0iMi4yNSIvPiYjeGE7CQkJCQk8L2c+JiN4YTsJCQkJPC9nPiYjeGE7CQkJCTxnIGlkPSJzaGFwZTExMjEwLTI1IiB0cmFuc2Zvcm09InRyYW5zbGF0ZSgwLjc1LC01OS4yNSkiPiYjeGE7CQkJCQk8dGl0bGUgaWQ9InRpdGxlMjY0NTI3Ij5yZWN0MTU0Mjc8L3RpdGxlPiYjeGE7CQkJCQk8cmVjdCBpZD0icmVjdDI2NDUyOSIgeT0iNjkuMDEiIHN0eWxlPSJmaWxsOiM1NTZBOEE7IiB3aWR0aD0iMi4yNSIgaGVpZ2h0PSIyLjI1Ii8+JiN4YTsJCQkJPC9nPiYjeGE7CQkJCTxnIGlkPSJzaGFwZTExMjExLTI3IiB0cmFuc2Zvcm09InRyYW5zbGF0ZSgwLjc1LC01NCkiPiYjeGE7CQkJCQk8dGl0bGUgaWQ9InRpdGxlMjY0NTMyIj5yZWN0MTU0Mjk8L3RpdGxlPiYjeGE7CQkJCQk8cmVjdCBpZD0icmVjdDI2NDUzNCIgeT0iNjkuMDEiIHN0eWxlPSJmaWxsOiM1NTZBOEE7IiB3aWR0aD0iMi4yNSIgaGVpZ2h0PSIyLjI1Ii8+JiN4YTsJCQkJPC9nPiYjeGE7CQkJCTxnIGlkPSJzaGFwZTExMjEyLTI5IiB0cmFuc2Zvcm09InRyYW5zbGF0ZSgwLjc1LC00OC43NSkiPiYjeGE7CQkJCQk8dGl0bGUgaWQ9InRpdGxlMjY0NTM3Ij5yZWN0MTU0MzE8L3RpdGxlPiYjeGE7CQkJCQk8cmVjdCBpZD0icmVjdDI2NDUzOSIgeT0iNjkuMDEiIHN0eWxlPSJmaWxsOiM1NTZBOEE7IiB3aWR0aD0iMi4yNSIgaGVpZ2h0PSIyLjI1Ii8+JiN4YTsJCQkJPC9nPiYjeGE7CQkJPC9nPiYjeGE7CQkJPGcgaWQ9InNoYXBlMTEyMTMtMzEiIHRyYW5zZm9ybT0idHJhbnNsYXRlKDEzLjY5ODMpIj4mI3hhOwkJCQk8dGl0bGUgaWQ9InRpdGxlMjY0NTQzIj5wb2x5Z29uMTU0MzUuMTE3Mzc8L3RpdGxlPiYjeGE7CQkJCSYjeGE7CQkJCQk8cGF0aCBpZD0icGF0aDI2NDU0NSIgaW5rc2NhcGU6Y29ubmVjdG9yLWN1cnZhdHVyZT0iMCIgc3R5bGU9ImZpbGw6I0ZGRkZGRjtzdHJva2U6IzcwMzBBMDtzdHJva2Utd2lkdGg6MS41O3N0cm9rZS1taXRlcmxpbWl0OjM7IiBkPSIgICAgICBNOC4yNyw3MS4yNkwwLDU3LjAybDguMjctMTQuMjNoMTYuNTVsOC4yNywxNC4yM2wtOC4yNywxNC4yNEg4LjI3eiIvPiYjeGE7CQkJPC9nPiYjeGE7CQk8L2c+JiN4YTsJCTxnIGlkPSJzaGFwZTExMjE0LTMzIiB0cmFuc2Zvcm09InRyYW5zbGF0ZSgxOS4zMzYzLC00LjM2NTcxKSI+JiN4YTsJCQk8dGl0bGUgaWQ9InRpdGxlMjY0NTQ5Ij5WaXN1YWwgU3R1ZGlvICMyPC90aXRsZT4mI3hhOwkJCTxnIGlkPSJzaGFkb3cxMTIxNC0zNCI+JiN4YTsJCQk8L2c+JiN4YTsJCQk8cGF0aCBpZD0icGF0aDI2NDU1MiIgaW5rc2NhcGU6Y29ubmVjdG9yLWN1cnZhdHVyZT0iMCIgc3R5bGU9ImZpbGw6IzY2MkY4RjsiIGQ9Ik0xNS4wNSw1MS4xOWwtNy45Niw3Ljk2TDIuMDEsNTUuMkwwLDU2LjIxICAgICB2MTAuMDNsMi4wMSwxbDUuMDgtMy45NWw3Ljk2LDcuOTdsNS4wMi0yLjAxVjUzLjJMMTUuMDUsNTEuMTl6IE0yLjAxLDY0LjIzdi02LjAybDMuMDEsMy4wMkwyLjAxLDY0LjIzeiBNOS43NSw2MS4yM2w1LjMtNC4xMyAgICAgdjguMjVMOS43NSw2MS4yM3oiLz4mI3hhOwkJPC9nPiYjeGE7CTwvZz4mI3hhOzwvZz4mI3hhOzwvc3ZnPg==;shadow=1;" vertex="1" parent="1">
          <mxGeometry x="60" y="136.5" width="48" height="70" as="geometry" />
        </mxCell>
        <mxCell id="k5dDuZlKuJjZO-RbewST-8" value="Azure DevOps" style="text;strokeColor=none;fillColor=none;html=1;fontSize=16;fontStyle=1;verticalAlign=middle;align=center;shadow=1;" vertex="1" parent="1">
          <mxGeometry x="60" y="206.5" width="100" height="40" as="geometry" />
        </mxCell>
        <mxCell id="k5dDuZlKuJjZO-RbewST-10" value="Azure Kubernetes Service" style="text;strokeColor=none;fillColor=none;html=1;fontSize=16;fontStyle=1;verticalAlign=middle;align=center;shadow=1;" vertex="1" parent="1">
          <mxGeometry x="470" y="-10" width="100" height="40" as="geometry" />
        </mxCell>
        <mxCell id="k5dDuZlKuJjZO-RbewST-11" value="" style="shape=image;verticalLabelPosition=bottom;labelBackgroundColor=#ffffff;verticalAlign=top;aspect=fixed;imageAspect=0;image=data:image/svg+xml,PHN2ZyB4bWxuczpjYz0iaHR0cDovL2NyZWF0aXZlY29tbW9ucy5vcmcvbnMjIiB4bWxuczpkYz0iaHR0cDovL3B1cmwub3JnL2RjL2VsZW1lbnRzLzEuMS8iIHhtbG5zOmlua3NjYXBlPSJodHRwOi8vd3d3Lmlua3NjYXBlLm9yZy9uYW1lc3BhY2VzL2lua3NjYXBlIiB4bWxuczpyZGY9Imh0dHA6Ly93d3cudzMub3JnLzE5OTkvMDIvMjItcmRmLXN5bnRheC1ucyMiIHhtbG5zOnNvZGlwb2RpPSJodHRwOi8vc29kaXBvZGkuc291cmNlZm9yZ2UubmV0L0RURC9zb2RpcG9kaS0wLmR0ZCIgeG1sbnM6c3ZnPSJodHRwOi8vd3d3LnczLm9yZy8yMDAwL3N2ZyIgeG1sbnM9Imh0dHA6Ly93d3cudzMub3JnLzIwMDAvc3ZnIiB4bWxuczp4bGluaz0iaHR0cDovL3d3dy53My5vcmcvMTk5OS94bGluayIgdmVyc2lvbj0iMS4xIiBpZD0ic3ZnMTE5NDciIGlua3NjYXBlOnZlcnNpb249IjAuOTIuMyAoMjQwNTU0NiwgMjAxOC0wMy0xMSkiIHNvZGlwb2RpOmRvY25hbWU9IndlYl9zZXJ2aWNlLnN2ZyIgeD0iMHB4IiB5PSIwcHgiIHZpZXdCb3g9IjAgMCAzOC45NCA0MC4yOSIgc3R5bGU9ImVuYWJsZS1iYWNrZ3JvdW5kOm5ldyAwIDAgMzguOTQgNDAuMjk7IiB4bWw6c3BhY2U9InByZXNlcnZlIj4mI3hhOzxzb2RpcG9kaTpuYW1lZHZpZXcgYm9yZGVyY29sb3I9IiM2NjY2NjYiIGJvcmRlcm9wYWNpdHk9IjEiIGZpdC1tYXJnaW4tYm90dG9tPSIwIiBmaXQtbWFyZ2luLWxlZnQ9IjAiIGZpdC1tYXJnaW4tcmlnaHQ9IjAiIGZpdC1tYXJnaW4tdG9wPSIwIiBncmlkdG9sZXJhbmNlPSIxMCIgZ3VpZGV0b2xlcmFuY2U9IjEwIiBpZD0ibmFtZWR2aWV3MTE5NDkiIGlua3NjYXBlOmN1cnJlbnQtbGF5ZXI9InN2ZzExOTQ3IiBpbmtzY2FwZTpjeD0iMTUuODMwODM5IiBpbmtzY2FwZTpjeT0iMTcuOTAzNzI4IiBpbmtzY2FwZTpwYWdlb3BhY2l0eT0iMCIgaW5rc2NhcGU6cGFnZXNoYWRvdz0iMiIgaW5rc2NhcGU6d2luZG93LWhlaWdodD0iMTAxNyIgaW5rc2NhcGU6d2luZG93LW1heGltaXplZD0iMSIgaW5rc2NhcGU6d2luZG93LXdpZHRoPSIxOTIwIiBpbmtzY2FwZTp3aW5kb3cteD0iLTgiIGlua3NjYXBlOndpbmRvdy15PSItOCIgaW5rc2NhcGU6em9vbT0iNy43Nzk5Nzk5IiBvYmplY3R0b2xlcmFuY2U9IjEwIiBwYWdlY29sb3I9IiNmZmZmZmYiIHNob3dncmlkPSJmYWxzZSI+JiN4YTsJPC9zb2RpcG9kaTpuYW1lZHZpZXc+JiN4YTs8ZyBpZD0iZzExOTQ1IiB0cmFuc2Zvcm09InRyYW5zbGF0ZSgtMS4zMTI3MTA0LC0wLjc0Nzg2MzA5KSI+JiN4YTsJPHRpdGxlIGlkPSJ0aXRsZTExODc1Ij5QYWdlLTE8L3RpdGxlPiYjeGE7CTxnIGlkPSJncm91cDQzNjEtMSIgdHJhbnNmb3JtPSJ0cmFuc2xhdGUoMS41LC0xLjUpIj4mI3hhOwkJPHRpdGxlIGlkPSJ0aXRsZTExODc3Ij5XZWIgU2VydmljZTwvdGl0bGU+JiN4YTsJCTxnIGlkPSJzaGFwZTQzNjItMiIgdHJhbnNmb3JtPSJ0cmFuc2xhdGUoNS4zNzk3NCwtOS4wNzcxNykiPiYjeGE7CQkJPHRpdGxlIGlkPSJ0aXRsZTExODc5Ij5wYXRoOTYxMDwvdGl0bGU+JiN4YTsJCQkmI3hhOwkJCQk8cGF0aCBpZD0icGF0aDExODgxIiBpbmtzY2FwZTpjb25uZWN0b3ItY3VydmF0dXJlPSIwIiBzdHlsZT0iZmlsbDojRkZGRkZGO3N0cm9rZTojNTU2QThBO3N0cm9rZS13aWR0aDowLjc1O3N0cm9rZS1taXRlcmxpbWl0OjM7IiBkPSIgICAgIE0zMC4wOSwyOS4zM2MwLDkuNzMtNy45LDE3LjYyLTE3LjYzLDE3LjYycy0xNy42Mi03LjktMTcuNjItMTcuNjNjMC05LjczLDcuODktMTcuNjIsMTcuNjItMTcuNjIgICAgIEMyMi4xOSwxMS43MSwzMC4wOCwxOS42LDMwLjA5LDI5LjMzeiIvPiYjeGE7CQk8L2c+JiN4YTsJCTxnIGlkPSJzaGFwZTQzNjMtNCIgdHJhbnNmb3JtPSJ0cmFuc2xhdGUoMC4yMTc0OTIsLTMuOTE0OTMpIj4mI3hhOwkJCTx0aXRsZSBpZD0idGl0bGUxMTg4NCI+cGF0aDk2MTI8L3RpdGxlPiYjeGE7CQkJPHBhdGggaWQ9InBhdGgxMTg4NiIgaW5rc2NhcGU6Y29ubmVjdG9yLWN1cnZhdHVyZT0iMCIgc3R5bGU9ImZpbGw6I0FDRThGOTsiIGQ9Ik0zNS4yNSwyNC4xNmMwLDkuNzMtNy44OSwxNy42Mi0xNy42MywxNy42MiAgICAgUzAsMzMuODksMCwyNC4xNmwwLDBIMzUuMjV6Ii8+JiN4YTsJCTwvZz4mI3hhOwkJPGcgaWQ9InNoYXBlNDM2NC02IiB0cmFuc2Zvcm09InRyYW5zbGF0ZSgxLjM0MjQ5LC04LjgxMikiPiYjeGE7CQkJPHRpdGxlIGlkPSJ0aXRsZTExODg5Ij5wYXRoOTYxNDwvdGl0bGU+JiN4YTsJCQk8cGF0aCBpZD0icGF0aDExODkxIiBpbmtzY2FwZTpjb25uZWN0b3ItY3VydmF0dXJlPSIwIiBzdHlsZT0iZmlsbDojNTU2QThBOyIgZD0iTTE2LjUsMTIuNTZjOS4xMSwwLDE2LjUsNy4zOSwxNi41LDE2LjUgICAgIHMtNy4zOSwxNi41LTE2LjUsMTYuNVMwLDM4LjE3LDAsMjkuMDZjMCwwLDAsMCwwLDBDMCwxOS45NSw3LjM5LDEyLjU2LDE2LjUsMTIuNTZ6IE0xNi41LDExLjA2Yy05Ljk0LDAtMTgsOC4wNi0xOCwxOCAgICAgczguMDYsMTgsMTgsMThzMTgtOC4wNiwxOC0xOFMyNi40NCwxMS4wNiwxNi41LDExLjA2eiIvPiYjeGE7CQk8L2c+JiN4YTsJCTxnIGlkPSJncm91cDQzNjUtOCIgdHJhbnNmb3JtPSJ0cmFuc2xhdGUoMCwtMy41Mzk5MykiPiYjeGE7CQkJPHRpdGxlIGlkPSJ0aXRsZTExODk0Ij5nOTYyMDwvdGl0bGU+JiN4YTsJCQk8ZyBpZD0ic2hhcGU0MzY2LTkiIHRyYW5zZm9ybT0idHJhbnNsYXRlKDkuNTkyNDkpIj4mI3hhOwkJCQk8dGl0bGUgaWQ9InRpdGxlMTE4OTYiPnBhdGg5NjE2PC90aXRsZT4mI3hhOwkJCQk8cGF0aCBpZD0icGF0aDExODk4IiBpbmtzY2FwZTpjb25uZWN0b3ItY3VydmF0dXJlPSIwIiBzdHlsZT0iZmlsbDojNTU2QThBOyIgZD0iTTcuODcsNy40OWMzLDAsNi4zOCw3LjAxLDYuMzgsMTYuNCAgICAgIGMwLDkuMzgtMy4zOCwxNi40LTYuMzgsMTYuNFMxLjUsMzMuMjgsMS41LDIzLjg5QzEuNSwxNC41MSw0Ljg3LDcuNDksNy44Nyw3LjQ5eiBNNy44Nyw1Ljk5QzMuNTIsNS45OSwwLDE0LDAsMjMuODkgICAgICBjMCw5Ljg4LDMuNTIsMTcuOSw3Ljg3LDE3LjlzNy44OC04LjAxLDcuODgtMTcuOUMxNS43NSwxNC4wMSwxMi4yMiw1Ljk5LDcuODcsNS45OXoiLz4mI3hhOwkJCTwvZz4mI3hhOwkJCTxnIGlkPSJzaGFwZTQzNjctMTEiIHRyYW5zZm9ybT0idHJhbnNsYXRlKDAsLTE4KSI+JiN4YTsJCQkJPHRpdGxlIGlkPSJ0aXRsZTExOTAxIj5saW5lOTYxODwvdGl0bGU+JiN4YTsJCQkJJiN4YTsJCQkJCTxwYXRoIGlkPSJwYXRoMTE5MDMiIGlua3NjYXBlOmNvbm5lY3Rvci1jdXJ2YXR1cmU9IjAiIHN0eWxlPSJmaWxsOm5vbmU7c3Ryb2tlOiM1NTZBOEE7c3Ryb2tlLXdpZHRoOjEuNTtzdHJva2UtbWl0ZXJsaW1pdDozOyIgZD0iICAgICAgTTAsNDEuNzloMzUuMDkiLz4mI3hhOwkJCTwvZz4mI3hhOwkJPC9nPiYjeGE7CQk8ZyBpZD0ic2hhcGU0MzY4LTE0IiB0cmFuc2Zvcm09InRyYW5zbGF0ZSg0LjM0OTk5LC0zMC41Mzk5KSI+JiN4YTsJCQk8dGl0bGUgaWQ9InRpdGxlMTE5MDciPnBhdGg5NjIyPC90aXRsZT4mI3hhOwkJCTxwYXRoIGlkPSJwYXRoMTE5MDkiIGlua3NjYXBlOmNvbm5lY3Rvci1jdXJ2YXR1cmU9IjAiIHN0eWxlPSJmaWxsOm5vbmU7IiBkPSJNMCwzOS43NmMzLjI5LDEuMjgsOC4xMiwyLjAzLDEzLjQ5LDIuMDMgICAgIHMxMC4yLTAuNzUsMTMuNS0yLjAzSDB6Ii8+JiN4YTsJCQkmI3hhOwkJCQk8cGF0aCBpZD0icGF0aDExOTExIiBpbmtzY2FwZTpjb25uZWN0b3ItY3VydmF0dXJlPSIwIiBzdHlsZT0iZmlsbDpub25lO3N0cm9rZTojNTU2QThBO3N0cm9rZS13aWR0aDoxLjU7c3Ryb2tlLW1pdGVybGltaXQ6MzsiIGQ9IiAgICAgTTAsMzkuNzZjMy4yOSwxLjI4LDguMTIsMi4wMywxMy40OSwyLjAzczEwLjItMC43NSwxMy41LTIuMDMiLz4mI3hhOwkJPC9nPiYjeGE7CQk8ZyBpZD0ic2hhcGU0MzY5LTE3IiB0cmFuc2Zvcm09InRyYW5zbGF0ZSg0LjM0OTk5LC0xMC41MDc0KSI+JiN4YTsJCQk8dGl0bGUgaWQ9InRpdGxlMTE5MTQiPnBhdGg5NjI0PC90aXRsZT4mI3hhOwkJCTxwYXRoIGlkPSJwYXRoMTE5MTYiIGlua3NjYXBlOmNvbm5lY3Rvci1jdXJ2YXR1cmU9IjAiIHN0eWxlPSJmaWxsOm5vbmU7IiBkPSJNMCw0MS43OWMzLjI5LTEuMjgsOC4xMi0yLjAzLDEzLjQ5LTIuMDMgICAgIHMxMC4yLDAuNzUsMTMuNSwyLjAzSDB6Ii8+JiN4YTsJCQkmI3hhOwkJCQk8cGF0aCBpZD0icGF0aDExOTE4IiBpbmtzY2FwZTpjb25uZWN0b3ItY3VydmF0dXJlPSIwIiBzdHlsZT0iZmlsbDpub25lO3N0cm9rZTojNTU2QThBO3N0cm9rZS13aWR0aDoxLjU7c3Ryb2tlLW1pdGVybGltaXQ6MzsiIGQ9IiAgICAgTTAsNDEuNzljMy4yOS0xLjI4LDguMTItMi4wMywxMy40OS0yLjAzczEwLjIsMC43NSwxMy41LDIuMDMiLz4mI3hhOwkJPC9nPiYjeGE7CQk8ZyBpZD0iZ3JvdXA0MzcwLTIwIiB0cmFuc2Zvcm09InRyYW5zbGF0ZSgxNS42NjkzKSI+JiN4YTsJCQk8dGl0bGUgaWQ9InRpdGxlMTE5MjEiPkNvbmZpZ3VyYXRpb248L3RpdGxlPiYjeGE7CQkJPGcgaWQ9InNoYXBlNDM3MS0yMSI+JiN4YTsJCQkJPHRpdGxlIGlkPSJ0aXRsZTExOTIzIj5wYXRoMTk0NC4yNzM2NzwvdGl0bGU+JiN4YTsJCQkJPHBhdGggaWQ9InBhdGgxMTkyNSIgaW5rc2NhcGU6Y29ubmVjdG9yLWN1cnZhdHVyZT0iMCIgc3R5bGU9ImZpbGw6I0ZGRkZGRjsiIGQ9Ik0yMi4yNywyOS4wM2MwLTAuMTctMC4yOS0wLjUzLTAuODItMC41NyAgICAgIGwtMi4wNC0wLjEyYy0wLjQ2LDAuMDItMC44Ny0wLjI4LTAuOTgtMC43M2MwLDAuMDEtMC45My0xLjc0LTAuNC0yLjM3bDEuMDktMS40N2MwLjE3LTAuMzMsMC4xMi0wLjczLTAuMTEtMS4wMmwtMS4zLTEuMDkgICAgICBjLTAuMjQtMC4yLTAuNi0wLjE4LTAuODEsMC4wNmMtMC4wMSwwLjAxLTAuMDIsMC4wMi0wLjAyLDAuMDNjMCwwLDAsMCwwLDAuMDNsLTEuNDIsMS4yOWMtMC4zNCwwLjM5LTAuOTEsMC40OS0xLjM3LDAuMjYgICAgICBjLTAuMzUsMC0wLjY3LTAuMi0xLTAuMjJjLTAuNDQtMC4yMy0wLjc4LTAuNjMtMC45My0xLjFsLTAuMjMtMS44OGMtMC4wNy0wLjQtMC40MS0wLjctMC44MS0wLjcxbC0xLjU1LDAuMjUgICAgICBjLTAuMzYsMC4wMi0wLjY2LDAuMjktMC43MSwwLjY1bDAuMDYsMi4wMWMwLDAuNS0wLjA3LDEuMzUtMS42MSwxLjYyYzAsMC0xLjE0LDAuMi0xLjU0LTAuMDhsLTEuNi0xLjI5ICAgICAgYy0wLjI4LTAuMTQtMC42Mi0wLjA5LTAuODUsMC4xM0wzLjIsMjIuODVsLTAuOTcsMS4xNGMtMC4yLDAuMjUtMC4xNiwwLjYxLDAuMDksMC44YzAuMDEsMC4wMSwwLjAyLDAuMDIsMC4wMywwLjAzbDEuMjcsMS41OSAgICAgIGMwLjczLDAuNzIsMC4wNiwxLjg3LDAuMDQsMi4yMWMtMC4xMiwwLjUyLTAuNTUsMC45LTEuMDgsMC45NmwtMi4wMiwwLjI1QzAuMjQsMjkuOTcsMC4wMSwzMC4yOSwwLDMwLjY1bDAuMDYsMS43MiAgICAgIGMwLjE2LDAuMzEsMC40NiwwLjUzLDAuODEsMC41N2wyLjA0LDAuMTFjMC42NywwLjAzLDEuMTQsMC4yMSwxLjYsMS42MmMwLjE4LDAuMzQsMC4zLDAuNzEtMC4yNCwxLjM0bC0xLjExLDEuNjQgICAgICBjLTAuMTQsMC4yOS0wLjA5LDAuNjMsMC4xMiwwLjg2bDEuMjksMS4wN2MwLjI1LDAuMTgsMC41OCwwLjIsMC44NCwwLjA1bDEuNDQtMS40NWMwLjUzLTAuNDgsMS45OSwwLDIuMzcsMC4xNCAgICAgIGMwLjQ3LDAuMDUsMC44NSwwLjQxLDAuOTMsMC44OGwwLjI2LDIuMDJjMC4xNCwwLjMzLDAuNDUsMC41NSwwLjgxLDAuNTdsMS41NC0wLjA4YzAuMzYtMC4wMiwwLjY2LTAuMjksMC43MS0wLjY1bC0wLjA1LTIuMDMgICAgICBjMC0wLjQ5LDIuMzYtMi4wMSwzLjE0LTEuNTFsMC44OCwwLjUybDAuOTksMC41OGMwLjI5LDAuMTQsMC4zOCwwLjA5LDAuNjItMC4xMmwxLjA4LTEuMTRjMC4yMy0wLjMyLDAuMTgtMC43Ny0wLjExLTEuMDMgICAgICBsLTEuMjktMS4zOWMtMC4zOS0wLjMzLTAuMTktMS41My0wLjA2LTIuMzVjMC4xNS0wLjQ2LDAuNTctMC43OCwxLjA2LTAuNzlsMi4wNi0wLjRDMjIuNiwzMS4xMSwyMi4yNywyOS4wMywyMi4yNywyOS4wM3ogICAgICAgTTguNzUsMzMuODdjLTAuMDktMC4wOC0wLjE5LTAuMTYtMC4yOC0wLjI0Yy0xLjYyLTEuNDEtMS44LTMuODYtMC40LTUuNDljMCwwLDAsMCwwLjAzLTAuMDRjMS40My0xLjcxLDMuOTctMS45Niw1LjcxLTAuNTcgICAgICBsMC4wOCwwLjA3YzEuNjUsMS40OSwxLjgxLDQuMDIsMC4zNiw1LjcxYy0wLjIsMC4yNC0wLjQzLDAuNDUtMC42OCwwLjY0QzEyLjEzLDM1LjAyLDEwLjE1LDM0Ljk5LDguNzUsMzMuODd6Ii8+JiN4YTsJCQk8L2c+JiN4YTsJCQk8ZyBpZD0ic2hhcGU0MzcyLTIzIiB0cmFuc2Zvcm09InRyYW5zbGF0ZSgzLjE5NzM1LC0zLjAyMDM1KSI+JiN4YTsJCQkJPHRpdGxlIGlkPSJ0aXRsZTExOTI4Ij5wYXRoMTk0Ni4yNzM2ODwvdGl0bGU+JiN4YTsJCQkJPHBhdGggaWQ9InBhdGgxMTkzMCIgaW5rc2NhcGU6Y29ubmVjdG9yLWN1cnZhdHVyZT0iMCIgc3R5bGU9ImZpbGw6I0U1RTVFNTsiIGQ9Ik0xOC42LDM0LjRsLTIuMDcsMC40ICAgICAgYy0wLjQ4LDAuMDItMC45LDAuMzMtMS4wNSwwLjc5Yy0wLjEzLDAuODItMC4zNCwyLjAyLDAuMDYsMi4zNWwxLjI1LDEuNDJjMC4zLDAuMjYsMC4zNSwwLjcxLDAuMTEsMS4wM2wtMS4wOCwxLjE0ICAgICAgYy0wLjIzLDAuMjEtMC4zMywwLjI2LTAuNjIsMC4xMmwtMC45OC0wLjU3bC0zLjg3LTQuMTNjMC4yNy0wLjE4LDAuNTItMC40LDAuNzMtMC42NWMxLjQ1LTEuNjksMS4yOS00LjIyLTAuMzYtNS43MWwtMC4wOS0wLjA1ICAgICAgYy0xLjc0LTEuMzktNC4yOC0xLjE0LTUuNzEsMC41N2MwLDAsMCwwLTAuMDMsMC4wNEwwLDI1Ljg1bDAuMTItMC4xNGMwLjIzLTAuMjIsMC41Ny0wLjI3LDAuODUtMC4xM2wxLjYsMS4yOSAgICAgIGMwLjM5LDAuMjksMS41NCwwLjA4LDEuNTQsMC4wOGMxLjU0LTAuMjcsMS42Mi0xLjE0LDEuNjItMS42MmwtMC4wNy0yLjAyYzAuMDUtMC4zNiwwLjM1LTAuNjMsMC43MS0wLjY1bDEuNTUtMC4yNCAgICAgIGMwLjQsMC4wMiwwLjc0LDAuMzIsMC44MSwwLjcxbDAuMjMsMS44OGMwLjE1LDAuNDcsMC40OSwwLjg3LDAuOTMsMS4xYzAuMzMsMCwwLjY1LDAuMiwxLDAuMjJjMC40NiwwLjIzLDEuMDMsMC4xMywxLjM3LTAuMjYgICAgICBsMS40My0xLjI0YzAsMCwwLDAsMC0wLjA0YzAuMTktMC4yNSwwLjU1LTAuMywwLjgtMC4xMWMwLjAxLDAuMDEsMC4wMiwwLjAxLDAuMDMsMC4wMmwxLjI5LDEuMWMwLjI0LDAuMjksMC4yOCwwLjY4LDAuMTEsMS4wMiAgICAgIGwtMS4wNiwxLjQzYy0wLjUzLDAuNjQsMC40LDIuMzgsMC40LDIuMzhjMC4xMSwwLjQ0LDAuNSwwLjc0LDAuOTUsMC43M2wyLDAuMTRjMC41MywwLDAuODMsMC4zNywwLjgzLDAuNTcgICAgICBDMTkuMDcsMzIuMDYsMTkuNCwzNC4xMywxOC42LDM0LjR6Ii8+JiN4YTsJCQk8L2c+JiN4YTsJCQk8ZyBpZD0ic2hhcGU0MzczLTI1Ij4mI3hhOwkJCQk8dGl0bGUgaWQ9InRpdGxlMTE5MzMiPnBhdGgxOTQ4LjI3MzY5PC90aXRsZT4mI3hhOwkJCQkmI3hhOwkJCQkJPHBhdGggaWQ9InBhdGgxMTkzNSIgaW5rc2NhcGU6Y29ubmVjdG9yLWN1cnZhdHVyZT0iMCIgc3R5bGU9ImZpbGw6bm9uZTtzdHJva2U6IzU1NkE4QTtzdHJva2Utd2lkdGg6MS41O3N0cm9rZS1taXRlcmxpbWl0OjM7IiBkPSIgICAgICBNMTguNDMsMzguNjJjMC4yOSwwLjEzLDAuMzgsMC4wOSwwLjYyLTAuMTJsMS4wOC0xLjE1YzAuMjMtMC4zMiwwLjE4LTAuNzctMC4xMS0xLjAzbC0xLjI4LTEuMzhjLTAuNC0wLjMzLTAuMTktMS41My0wLjA2LTIuMzUgICAgICBjMC4xNS0wLjQ2LDAuNTctMC43NywxLjA1LTAuNzlsMi4wNi0wLjRjMC44MS0wLjI2LDAuNDctMi4zNSwwLjQ3LTIuMzVjMC0wLjE3LTAuMy0wLjUzLTAuODItMC41N2wtMi4wMy0wLjEzICAgICAgYy0wLjQ1LDAtMS45MS0yLjQ3LTEuMzgtMy4xMWwxLjEtMS40NmMwLjE3LTAuMzMsMC4xMy0wLjczLTAuMTEtMS4wMmwtMS4zLTEuMWMtMC4yNC0wLjItMC42LTAuMTgtMC44MSwwLjA2ICAgICAgYy0wLjAxLDAuMDEtMC4wMiwwLjAyLTAuMDIsMC4wM2wwLDAuMDRsLTEuNDIsMS4yOGMtMC4zNSwwLjM5LTMuMTQtMC41Ny0zLjMtMS4wNmwtMC4yMy0xLjg4Yy0wLjA3LTAuNC0wLjQxLTAuNy0wLjgxLTAuNzIgICAgICBsLTEuNTQsMC4yNmMtMC4zNiwwLjAyLTAuNjYsMC4yOS0wLjcxLDAuNjRsMC4wNiwyLjAyYzAsMC41LTAuMDgsMS4zNC0xLjYyLDEuNjJjMCwwLTEuMTQsMC4yLTEuNTUtMC4wOWwtMS42LTEuMjggICAgICBjLTAuMjgtMC4xNC0wLjYyLTAuMDktMC44NiwwLjEzTDIuMjMsMjRjLTAuMTksMC4yNS0wLjE1LDAuNjEsMC4xLDAuOGMwLjAxLDAuMDEsMC4wMiwwLjAxLDAuMDMsMC4wMmwxLjI3LDEuNTkgICAgICBjMC43MywwLjcyLDAuMDYsMS44OCwwLjA0LDIuMjFjLTAuMTIsMC41Mi0wLjU1LDAuOS0xLjA4LDAuOTZsLTIuMDIsMC4yNUMwLjI0LDI5Ljk3LDAuMDIsMzAuMjksMCwzMC42NWwwLjA2LDEuNzEgICAgICBjMC4xNiwwLjMxLDAuNDYsMC41MywwLjgxLDAuNTdsMi4wMywwLjExYzAuNjcsMC4wNCwxLjE0LDAuMjEsMS42LDEuNjJjMC4xOCwwLjM0LDAuMzEsMC43MS0wLjI0LDEuMzVsLTEuMTEsMS42MyAgICAgIGMtMC4xNCwwLjI4LTAuMDksMC42MiwwLjEzLDAuODZsMS4yOSwxLjA3YzAuMjUsMC4xOCwwLjU4LDAuMiwwLjg1LDAuMDVsMS40My0xLjQ0YzAuNTMtMC40OCwzLjIzLDAuNTcsMy4zMSwxLjAybDAuMjUsMi4wMiAgICAgIGMwLjE0LDAuMzMsMC40NiwwLjU2LDAuODIsMC41N2wxLjUzLTAuMDljMC4zNi0wLjAyLDAuNjYtMC4yOSwwLjcxLTAuNjRsLTAuMDUtMi4wM2MwLTAuNDksMi4zNi0yLjAxLDMuMTQtMS41MUwxOC40MywzOC42MnoiLz4mI3hhOwkJCTwvZz4mI3hhOwkJCTxnIGlkPSJzaGFwZTQzNzQtMjciIHRyYW5zZm9ybT0idHJhbnNsYXRlKDcuMTM2OTQsLTcuMDQ1NTkpIj4mI3hhOwkJCQk8dGl0bGUgaWQ9InRpdGxlMTE5MzgiPmNpcmNsZTE5NTAuMjczNzA8L3RpdGxlPiYjeGE7CQkJCSYjeGE7CQkJCQk8Y2lyY2xlIGlkPSJlbGxpcHNlMTE5NDAiIHN0eWxlPSJmaWxsOm5vbmU7c3Ryb2tlOiM1NTZBOEE7c3Ryb2tlLXdpZHRoOjEuNTtzdHJva2UtbWl0ZXJsaW1pdDozOyIgY3g9IjQuMDUiIGN5PSIzNy43NCIgcj0iNC4wNSIvPiYjeGE7CQkJPC9nPiYjeGE7CQk8L2c+JiN4YTsJPC9nPiYjeGE7PC9nPiYjeGE7PC9zdmc+;shadow=1;fontSize=16;" vertex="1" parent="1">
          <mxGeometry x="414" y="180" width="39" height="40" as="geometry" />
        </mxCell>
        <mxCell id="k5dDuZlKuJjZO-RbewST-12" value="" style="shape=image;verticalLabelPosition=bottom;labelBackgroundColor=#ffffff;verticalAlign=top;aspect=fixed;imageAspect=0;image=data:image/svg+xml,PHN2ZyB4bWxuczpjYz0iaHR0cDovL2NyZWF0aXZlY29tbW9ucy5vcmcvbnMjIiB4bWxuczpkYz0iaHR0cDovL3B1cmwub3JnL2RjL2VsZW1lbnRzLzEuMS8iIHhtbG5zOmlua3NjYXBlPSJodHRwOi8vd3d3Lmlua3NjYXBlLm9yZy9uYW1lc3BhY2VzL2lua3NjYXBlIiB4bWxuczpyZGY9Imh0dHA6Ly93d3cudzMub3JnLzE5OTkvMDIvMjItcmRmLXN5bnRheC1ucyMiIHhtbG5zOnNvZGlwb2RpPSJodHRwOi8vc29kaXBvZGkuc291cmNlZm9yZ2UubmV0L0RURC9zb2RpcG9kaS0wLmR0ZCIgeG1sbnM6c3ZnPSJodHRwOi8vd3d3LnczLm9yZy8yMDAwL3N2ZyIgeG1sbnM9Imh0dHA6Ly93d3cudzMub3JnLzIwMDAvc3ZnIiB4bWxuczp4bGluaz0iaHR0cDovL3d3dy53My5vcmcvMTk5OS94bGluayIgdmVyc2lvbj0iMS4xIiBpZD0ic3ZnMTIwNjUiIGlua3NjYXBlOnZlcnNpb249IjAuOTIuMyAoMjQwNTU0NiwgMjAxOC0wMy0xMSkiIHNvZGlwb2RpOmRvY25hbWU9IndlYnNpdGVzLnN2ZyIgeD0iMHB4IiB5PSIwcHgiIHZpZXdCb3g9IjAgMCA0MC4yMiA0MC4wMiIgc3R5bGU9ImVuYWJsZS1iYWNrZ3JvdW5kOm5ldyAwIDAgNDAuMjIgNDAuMDI7IiB4bWw6c3BhY2U9InByZXNlcnZlIj4mI3hhOzxzb2RpcG9kaTpuYW1lZHZpZXcgYm9yZGVyY29sb3I9IiM2NjY2NjYiIGJvcmRlcm9wYWNpdHk9IjEiIGZpdC1tYXJnaW4tYm90dG9tPSIwIiBmaXQtbWFyZ2luLWxlZnQ9IjAiIGZpdC1tYXJnaW4tcmlnaHQ9IjAiIGZpdC1tYXJnaW4tdG9wPSIwIiBncmlkdG9sZXJhbmNlPSIxMCIgZ3VpZGV0b2xlcmFuY2U9IjEwIiBpZD0ibmFtZWR2aWV3MTIwNjciIGlua3NjYXBlOmN1cnJlbnQtbGF5ZXI9InN2ZzEyMDY1IiBpbmtzY2FwZTpjeD0iMjQuNjM2NjY5IiBpbmtzY2FwZTpjeT0iMjEuNTIzNTM3IiBpbmtzY2FwZTpwYWdlb3BhY2l0eT0iMCIgaW5rc2NhcGU6cGFnZXNoYWRvdz0iMiIgaW5rc2NhcGU6d2luZG93LWhlaWdodD0iMTAxNyIgaW5rc2NhcGU6d2luZG93LW1heGltaXplZD0iMSIgaW5rc2NhcGU6d2luZG93LXdpZHRoPSIxOTIwIiBpbmtzY2FwZTp3aW5kb3cteD0iLTgiIGlua3NjYXBlOndpbmRvdy15PSItOCIgaW5rc2NhcGU6em9vbT0iOC4xMjM1MjcxIiBvYmplY3R0b2xlcmFuY2U9IjEwIiBwYWdlY29sb3I9IiNmZmZmZmYiIHNob3dncmlkPSJmYWxzZSI+JiN4YTsJPC9zb2RpcG9kaTpuYW1lZHZpZXc+JiN4YTs8ZyBpZD0iZzEyMDYzIj4mI3hhOwk8dGl0bGUgaWQ9InRpdGxlMTIwNTMiPlBhZ2UtMTwvdGl0bGU+JiN4YTsJPGcgaWQ9Imdyb3VwNDMyMi0xIj4mI3hhOwkJPHRpdGxlIGlkPSJ0aXRsZTEyMDU1Ij5XZWJzaXRlczwvdGl0bGU+JiN4YTsJCTxnIGlkPSJzaGFwZTQzMjMtMiI+JiN4YTsJCQk8dGl0bGUgaWQ9InRpdGxlMTIwNTciPlNoZWV0LjQzMjM8L3RpdGxlPiYjeGE7CQkJPHBhdGggaWQ9InBhdGgxMjA1OSIgaW5rc2NhcGU6Y29ubmVjdG9yLWN1cnZhdHVyZT0iMCIgc3R5bGU9ImZpbGw6IzNGNTc2NTsiIGQ9Ik0yMCwwYzExLjA3LDAsMjAuMjIsOC45LDIwLjIyLDE5LjkxICAgICBjMCwxMS4yMi05LjE1LDIwLjExLTIwLjIyLDIwLjExYy0xMS4wNiwwLTIwLTguODktMjAtMjAuMTFDMCw4LjksOC45NCwwLDIwLDB6IE0yNy40NiwzNi40M2MtMC42NC0zLjM5LDEuMjctOS4xMSwwLjIxLTEwLjE3ICAgICBjLTAuNDItMC4yMS0wLjg1LTAuNDItMS4yOC0wLjIxYy0wLjg1LDAuMjEtMS43LDAuNjMtMi4zNCwwLjQyYy0zLjYyLTEuNjktMS40OS03LjQxLDIuMTMtOC42OGMwLjY0LTAuMjEsMS4yOC0wLjIxLDEuOTEtMC4yMSAgICAgYzEuMDctMC4yMSwxLjcxLTAuMjEsMS43MSwwLjQyYzAsMC44NSwxLjcsMS40OSwyLjEyLDEuNDljMC4yMiwwLDAuMjItMC42NCwwLjQzLTAuNjRjMS40OSwwLDIuNTUsMC44NSwyLjc3LDAuMjEgICAgIGMwLjQyLTIuMTIsMC4yMS0xLjA2LTEuNS0xLjI3Yy0wLjYzLTAuMjEtMC4yMS0xLjI3LTAuODQtMS4yN2MtMC40My0wLjIxLDAuMjEsMS4yNy0wLjQzLDAuODVjLTAuODUtMC42NC0xLjI4LTIuMTItMi4xMy0yLjMzICAgICBjLTEuMDYtMC4yMSwwLjY0LDAuODQsMC44NSwxLjQ4YzAuMjEsMC42NC0wLjY0LDEuNDgtMS4wNiwwLjg1Yy0wLjIxLTAuMjEsMC44NS0wLjg1LTAuNDMtMS42OWMtMC4yMS0wLjQzLTAuODUtMC40My0xLjI4LDAgICAgIGMtMC42MywwLjYzLTAuODQsMS4yNi0xLjA1LDEuMjZjLTAuNjUsMC40My0xLjA3LDAuNDMtMS43MSwwLjIyYy0wLjg1LTAuMjItMC42NC0yLjEyLDAuMjEtMS45MWMyLjU1LDAuNjMsMC4yMS0wLjg1LDAuODUtMS4yNyAgICAgYzAuMjItMC4yMSwxLjA3LTAuODQsMS40OS0xLjQ4YzAuNDMtMC40MywwLjIxLTEuNjksMS4wNy0xLjQ4YzAuNDIsMCwwLjIxLDAuODQsMC42NCwxLjA1YzAuMjEsMC4yMSwwLjg0LDAsMS4yNywwICAgICBjMC42NCwwLDAuNjQtMC40MiwwLjY0LTEuMDVjMC0wLjg1LDEuNDktMC42NCwxLjQ5LTEuMDdjLTAuMjEtMC42My0xLjcsMC4yMi0xLjctMC42M2MwLTEuMDYsMS4yOC0xLjI3LDAuNDItMS40OCAgICAgYy0wLjY0LTAuMjItMS40OSwwLjQyLTEuMjgsMS45YzAuMjIsMS40OSwwLjQzLDIuMTItMC42MywxLjdjLTAuODUtMC42MywwLjIxLTEuNy0wLjY0LTEuMjdjLTAuNjQsMC40Mi0xLjA3LDAuNjQtMS4wNy0wLjQzICAgICBjMC0wLjg0LDEuNzEtMy4zOCwyLjk4LTMuODFjLTIuMzQtMS45LTUuMS0zLjE3LTguMy0zLjZsMCwwYzAsMS43LDAsMi43Ni0wLjIxLDMuNmMwLDEuMDYtMy4xOSwxLjI3LTMuNjEsMy4xOCAgICAgYy0wLjQzLDEuNy0xLjA3LDAuNjMtMi4xMy0wLjY0Yy0xLjA3LTEuMjcsMC4yMS0yLjk2LTAuNDItNC4wMmMtMC40My0xLjA2LTIuMzUsMC40My0yLjM1LTAuNjRjMC0wLjQyLDAuNDItMC44NCwwLjQyLTEuMDUgICAgIGMtMC4yMSwwLjIxLTAuNDIsMC4yMS0wLjYzLDAuMjFjLTAuNjQsMC40Mi0xLjA3LDEuNy0xLjI4LDEuOTFjLTAuNjQsMC44NCwwLjg1LDAuNjMsMS40OSwxLjQ4YzAuODUsMS4yNiwxLjQ5LDIuMTEsMS4wNiwyLjc1ICAgICBjLTAuMjEsMC42My0yLjc2LDAtMi4zNC0xLjA2YzAuNjQtMS4wNiwwLjIyLTEuMjctMC40Mi0xLjQ4Yy0wLjY0LDAtMC42NCwwLjg0LTAuNjQsMS45YzAsMC44NS0xLjcsMS4wNi0yLjU2LDEuOTEgICAgIGMtMC44NCwxLjA2LDAuNjQsMS45LDEuOTMsMi4zM2MxLjI3LDAuNDMsMC40Mi0xLjY5LDAuODQtMi43NmMwLjQzLTEuNDgsMS45Mi0wLjIxLDIuOTgsMS4wN2MwLjg1LDEuMjYsMi4zNCwyLjk2LDAuNDMsMy44MSAgICAgYy0zLjIsMS4yNi00LjQ3LDIuNzUtNS4xMSw0LjAyYy0wLjY0LDEuMjcsMCwxLjktMC40MywyLjMzYy0wLjQyLDAuNDMtMC40Mi0wLjIxLTAuODUtMS4yN2MtMC40Mi0wLjYzLTEuOTEtMC42My0yLjU1LDAuNjMgICAgIGMtMC40MiwwLjIxLTAuNDIsMC44NS0wLjQyLDEuNDljMCwyLjEyLDEuNDgtMC42NCwyLjM0LTAuMjFjMS4wNiwwLjIxLTAuODYsMC40Mi0wLjY0LDEuMjZjMC4yMSwwLjg2LDEuNDgtMC40MiwxLjA2LDEuNDggICAgIGMtMC4yMSwxLjA3LDEuNDksMC4yMiwyLjU2LTAuMmMyLjM0LTAuODUsNC4wNCwyLjk2LDUuNzQsMy42YzEuOTIsMC42MywyLjU1LDEuMDUsMi4xMywxLjljLTEuMjgsMi41NS0zLjgzLDQuMjQtNS4xMSw3LjIgICAgIGMxLjcsMC42MywzLjgzLDAuODUsNS43NCwwLjg1QzIyLjc3LDM3LjkxLDI1LjExLDM3LjQ4LDI3LjQ2LDM2LjQzeiBNMzcuNjcsMjQuMTVjLTAuNDMsMC0wLjg1LDAuMjEtMS4wNywwLjIxICAgICBjLTEuMDYtMC40Mi0wLjQyLTQuNjYtMS45MS00LjQ1Yy0wLjY0LDAuMjEsMC40MywzLjM5LDEuOTEsNS4wOGMwLjIyLDAuMjEsMC40MywwLDAuODYsMEMzNy40NiwyNC43OCwzNy42NywyNC4zNiwzNy42NywyNC4xNXogICAgICBNMzYuNiwyNy4xMWMtMS43LTAuNDMtMi45OCwzLjM5LTMuNCw1LjA4QzM0LjY5LDMwLjcxLDM1Ljc1LDI5LjAxLDM2LjYsMjcuMTF6IE0xMS4wNywzNS41OGMwLjIyLTEuNywwLjQzLTMuNiwwLTMuODEgICAgIEM5LjU4LDMwLjUsOC41MiwyOC41OSwxMCwyNi42OGMwLjIyLTAuMjEsMC40My0wLjQyLDAuNDMtMC44NGMwLjIxLTAuNjQtMC40My0wLjIxLTEuNDktMC4yMXMtMC4yMS0xLjY5LTIuMzQtMS45MSAgICAgYy0yLjEzLTAuMjEtMi4xMy0wLjY0LTIuMzQtMS45YzAtMS4yOC0xLjI3LTIuNTQtMi4zNC0yLjc2YzAsMC4yMiwwLDAuNjQsMCwwLjg1QzEuOTIsMjYuNjgsNS43NSwzMi42MiwxMS4wNywzNS41OHogICAgICBNMjIuOTgsOC42OWMwLjg2LDAuNDIsMS43MS0wLjIyLDEuNS0wLjg1QzIzLjg0LDYuNzgsMjEuOTMsNy40MSwyMi45OCw4LjY5eiBNMjYuNiwxMC4zOGMwLjY1LDAsMS4wNywxLjI3LDAuODYsMS45ICAgICBjLTAuNDMsMS4yOC0xLjUsMC40My0xLjcxLTAuNDJDMjUuNzUsMTEuMDIsMjUuOTYsMTAuMzgsMjYuNiwxMC4zOHogTTMzLjYyLDE2LjMxYy0wLjYzLTAuNjMtMC40Mi0xLjQ4LDAuNDMtMS43ICAgICBjMS40OS0wLjIxLDMuNDEsMS4yNywyLjEzLDEuN0MzNS41NCwxNi41MiwzNC40OCwxNi41MiwzMy42MiwxNi4zMXogTTkuNzksMjEuNjFjMC42NCwwLDIuMzQsMC40MiwyLjc3LDAuODQgICAgIGMwLjQyLDAuNjMtMS4yNywwLjQyLTIuMzQsMEM5LjU4LDIyLjI0LDkuMTUsMjEuODIsOS43OSwyMS42MXoiLz4mI3hhOwkJPC9nPiYjeGE7CTwvZz4mI3hhOzwvZz4mI3hhOzwvc3ZnPg==;shadow=1;fontSize=16;" vertex="1" parent="1">
          <mxGeometry x="374" y="410" width="40" height="40" as="geometry" />
        </mxCell>
        <mxCell id="k5dDuZlKuJjZO-RbewST-13" value="" style="shape=image;verticalLabelPosition=bottom;labelBackgroundColor=#ffffff;verticalAlign=top;aspect=fixed;imageAspect=0;image=data:image/svg+xml,PHN2ZyB4bWxuczpkYz0iaHR0cDovL3B1cmwub3JnL2RjL2VsZW1lbnRzLzEuMS8iIHhtbG5zOmNjPSJodHRwOi8vY3JlYXRpdmVjb21tb25zLm9yZy9ucyMiIHhtbG5zOnJkZj0iaHR0cDovL3d3dy53My5vcmcvMTk5OS8wMi8yMi1yZGYtc3ludGF4LW5zIyIgeG1sbnM6c3ZnPSJodHRwOi8vd3d3LnczLm9yZy8yMDAwL3N2ZyIgeG1sbnM9Imh0dHA6Ly93d3cudzMub3JnLzIwMDAvc3ZnIiB4bWxuczpzb2RpcG9kaT0iaHR0cDovL3NvZGlwb2RpLnNvdXJjZWZvcmdlLm5ldC9EVEQvc29kaXBvZGktMC5kdGQiIHhtbG5zOmlua3NjYXBlPSJodHRwOi8vd3d3Lmlua3NjYXBlLm9yZy9uYW1lc3BhY2VzL2lua3NjYXBlIiB2ZXJzaW9uPSIxLjEiIGlkPSJzdmc3NzU3OSIgaW5rc2NhcGU6dmVyc2lvbj0iMC45Mi4zICgyNDA1NTQ2LCAyMDE4LTAzLTExKSIgc29kaXBvZGk6ZG9jbmFtZT0ibWljcm9zb2Z0X2F6dXJlLnN2ZyIgeD0iMHB4IiB5PSIwcHgiIHZpZXdCb3g9IjAgMCA2Mi43NjMxODQgNDguNDc5OTk5IiB4bWw6c3BhY2U9InByZXNlcnZlIiB3aWR0aD0iNjIuNzYzMTg0IiBoZWlnaHQ9IjQ4LjQ4Ij48bWV0YWRhdGEgaWQ9Im1ldGFkYXRhNjc4MCI+PHJkZjpSREY+PGNjOldvcmsgcmRmOmFib3V0PSIiPjxkYzpmb3JtYXQ+aW1hZ2Uvc3ZnK3htbDwvZGM6Zm9ybWF0PjxkYzp0eXBlIHJkZjpyZXNvdXJjZT0iaHR0cDovL3B1cmwub3JnL2RjL2RjbWl0eXBlL1N0aWxsSW1hZ2UiLz48ZGM6dGl0bGUvPjwvY2M6V29yaz48L3JkZjpSREY+PC9tZXRhZGF0YT48ZGVmcyBpZD0iZGVmczY3NzgiPiYjeGE7CSYjeGE7CSYjeGE7JiN4YTsJCSYjeGE7CQkmI3hhOwkJJiN4YTsJJiN4YTsJCQkmI3hhOwkJPC9kZWZzPiYjeGE7PHNvZGlwb2RpOm5hbWVkdmlldyBib3JkZXJjb2xvcj0iIzY2NjY2NiIgYm9yZGVyb3BhY2l0eT0iMSIgZml0LW1hcmdpbi1ib3R0b209IjAiIGZpdC1tYXJnaW4tbGVmdD0iMCIgZml0LW1hcmdpbi1yaWdodD0iMCIgZml0LW1hcmdpbi10b3A9IjAiIGdyaWR0b2xlcmFuY2U9IjEwIiBndWlkZXRvbGVyYW5jZT0iMTAiIGlkPSJuYW1lZHZpZXc3NzU4MSIgaW5rc2NhcGU6Y3VycmVudC1sYXllcj0ic3ZnNzc1NzkiIGlua3NjYXBlOmN4PSIzOC4zNTE3MDUiIGlua3NjYXBlOmN5PSIxMS4wODk3MDciIGlua3NjYXBlOnBhZ2VvcGFjaXR5PSIwIiBpbmtzY2FwZTpwYWdlc2hhZG93PSIyIiBpbmtzY2FwZTp3aW5kb3ctaGVpZ2h0PSIxMDE3IiBpbmtzY2FwZTp3aW5kb3ctbWF4aW1pemVkPSIxIiBpbmtzY2FwZTp3aW5kb3ctd2lkdGg9IjE5MjAiIGlua3NjYXBlOndpbmRvdy14PSItOCIgaW5rc2NhcGU6d2luZG93LXk9Ii04IiBpbmtzY2FwZTp6b29tPSI4LjQzOTExODIiIG9iamVjdHRvbGVyYW5jZT0iMTAiIHBhZ2Vjb2xvcj0iI2ZmZmZmZiIgc2hvd2dyaWQ9ImZhbHNlIj4mI3hhOwk8L3NvZGlwb2RpOm5hbWVkdmlldz4mI3hhOzxwYXRoIGlkPSJwYXRoNzc1NzQiIGlua3NjYXBlOmNvbm5lY3Rvci1jdXJ2YXR1cmU9IjAiIHN0eWxlPSJmaWxsOiMyMDc1YjgiIGQ9Im0gMTUuNjgyOTQ5LDQ4LjM2IGMgMC4wNywtMC4wNyA2LjQsLTEuMjMgMTQuMDYsLTIuNTcgNy42NSwtMS4zNSAxMy45NywtMi41IDE0LjAzLC0yLjU2IDAuMTIsLTAuMTEgLTAuNzUsLTEuMTcgLTEwLjIyLC0xMi40NiAtMi41MiwtMi45OSAtNC42MywtNS41NiAtNC43LC01LjcgLTAuMDksLTAuMTkgMC44OSwtMy4wNCAzLjczLC0xMC44MyAyLjExLC01LjgxIDMuODcsLTEwLjY1IDMuOTEsLTEwLjc1IDAuMDMsLTAuMDkgMC4xMywtMC4xNyAwLjIyLC0wLjE3IDAuMTksMCAyNi4xNCw0NC45MSAyNi4wNSw0NS4wNiAtMC4wNCwwLjA2IC0xMC42OCwwLjEgLTIzLjY0LDAuMSAtMTMuOTEsMCAtMjMuNTIsLTAuMDUgLTIzLjQ0LC0wLjEyIHogTSAwLjAwMjk0OTA1LDQzLjAxIGMgLTAuMDUsLTAuMTMgMC41NCwtMS4yOSAxLjQ0OTk5OTk1LC0yLjg4IDAuODQsLTEuNDYgNC40MjAwMDA0LC03LjY2IDcuOTUwMDAwNCwtMTMuNzcgbCA2LjQwOTk5OTYsLTExLjEgOS4wOCwtNy42MyBjIDQuOTksLTQuMTkgOS4xNSwtNy42MyA5LjI0LC03LjYzIDAuMSwwIDAuMTMsMC4wOSAwLjA4LDAuMjQgLTAuNDcsMS4yNCAtMTkuOTEsNDIuNjggLTIwLjA4LDQyLjgxIC0wLjE5LDAuMTMgLTEuODQsMC4xNyAtNy4xNDk5OTk2LDAuMTcgLTYuMDcwMDAwMzUsMCAtNi45MTAwMDAzNSwtMC4wMyAtNi45ODAwMDAzNSwtMC4yMSB6Ii8+JiN4YTs8L3N2Zz4=;shadow=1;fontSize=16;" vertex="1" parent="1">
          <mxGeometry x="311" y="-130" width="63" height="48" as="geometry" />
        </mxCell>
      </root>
    </mxGraphModel>
  </diagram>
</mxfile>
